<?xml version="1.0" encoding="utf-8"?>
<!-- Generator: Adobe Illustrator 27.2.0, SVG Export Plug-In . SVG Version: 6.00 Build 0)  -->
<svg version="1.1" id="Layer_1" xmlns="http://www.w3.org/2000/svg" xmlns:xlink="http://www.w3.org/1999/xlink" x="0px" y="0px"
	 viewBox="0 0 1005 600" style="enable-background:new 0 0 1005 600;" xml:space="preserve">
<style type="text/css">
	.st0{fill:none;}
	.st1{font-family:'Helvetica';}
	.st2{font-size:11.9227px;}
	.st3{enable-background:new    ;}
	.st4{fill:#DBE9F6;}
	.st5{fill:#C2DAEE;}
	.st6{fill:#206FB2;}
	.st7{fill:#84BCDB;}
	.st8{fill:#83BBDB;}
	.st9{fill:#71B0D6;}
	.st10{fill:#C2DAED;}
	.st11{fill:#4491C6;}
	.st12{fill:#B1D2E8;}
	.st13{fill:#7AB6D9;}
	.st14{fill:#C3DBEE;}
	.st15{fill:#D8E7F5;}
	.st16{fill:#EDF5FC;}
	.st17{fill:#CADFF0;}
	.st18{fill:#BAD6EB;}
	.st19{fill:#69ACD4;}
	.st20{fill:#B4D4E9;}
	.st21{fill:#AFD1E7;}
	.st22{fill:#6DAED5;}
	.st23{fill:#74B2D7;}
	.st24{fill:#A3CBE3;}
	.st25{fill:#62A7D2;}
	.st26{fill:#7FB9DA;}
	.st27{fill:#D9E8F5;}
	.st28{fill:#539DCC;}
	.st29{fill:#A1CAE3;}
	.st30{fill:#4D99CA;}
	.st31{fill:#C9DEF0;}
	.st32{fill:#5FA6D1;}
	.st33{fill:#8FC1DE;}
	.st34{fill:#B0D2E8;}
	.st35{fill:#B8D5EA;}
	.st36{fill:#70B0D6;}
	.st37{fill:#2A79B9;}
	.st38{fill:#D2E3F3;}
	.st39{fill:#8DC0DD;}
	.st40{fill:#99C7E1;}
	.st41{fill:#115BA3;}
	.st42{fill:#6FAFD6;}
	.st43{fill:#85BCDC;}
	.st44{fill:#9BC8E1;}
	.st45{fill:#65A9D3;}
	.st46{fill:#96C5E0;}
	.st47{fill:#82BBDB;}
	.st48{fill:#2675B6;}
	.st49{fill:#9FC9E2;}
	.st50{fill:#5CA4D0;}
	.st51{fill:#57A0CE;}
	.st52{fill:#08316D;}
	.st53{fill:#5DA4D0;}
	.st54{fill:#58A1CE;}
	.st55{fill:#98C6E0;}
	.st56{fill:#DFEBF7;}
	.st57{fill:#519CCC;}
	.st58{fill:#3E8DC3;}
	.st59{fill:#97C6E0;}
	.st60{fill:#C7DDEF;}
	.st61{fill:#A8CEE5;}
	.st62{fill:#6BADD5;}
	.st63{fill:#418FC5;}
	.st64{fill:#408FC4;}
	.st65{fill:#F7FBFF;}
	.st66{fill:#7DB8DA;}
	.st67{fill:#083D7E;}
	.st68{fill:#145FA6;}
	.st69{fill:#3989C1;}
	.st70{fill:#0E549C;}
	.st71{fill:#A7CEE5;}
	.st72{fill:#BDD8EC;}
	.st73{fill:#0D5299;}
	.st74{fill:#BED8EC;}
	.st75{fill:#1A68AD;}
	.st76{fill:#3584BF;}
	.st77{fill:#4593C7;}
	.st78{fill:#0D539B;}
	.st79{fill:#0E559C;}
	.st80{fill:#2878B8;}
	.st81{fill:#91C2DF;}
	.st82{fill:#C4DBEE;}
	.st83{fill:#B2D2E8;}
	.st84{fill:#3382BE;}
	.st85{fill:#E8F2FA;}
	.st86{fill:#ECF4FC;}
	.st87{fill:#A5CCE4;}
	.st88{fill:#3282BD;}
	.st89{fill:#0F569E;}
	.st90{fill:#4290C5;}
	.st91{fill:#2C7BBA;}
	.st92{fill:#2F7EBC;}
	.st93{fill:#6EAFD5;}
	.st94{fill:#4B97C9;}
	.st95{fill:#2676B7;}
	.st96{fill:#4E9ACB;}
	.st97{fill:#539DCD;}
	.st98{fill:#0C5198;}
	.st99{fill:#95C5E0;}
	.st100{fill:#E4EFF9;}
	.st101{fill:#125CA3;}
	.st102{fill:#08306B;}
	.st103{fill:#4A97C9;}
	.st104{fill:#3C8BC3;}
	.st105{fill:#1865AB;}
	.st106{fill:#B5D4E9;}
	.st107{fill:#A9CEE5;}
	.st108{fill:#1561A8;}
	.st109{fill:#3A89C2;}
	.st110{fill:#80B9DA;}
	.st111{fill:#5CA3D0;}
	.st112{fill:#1C6AAF;}
	.st113{fill:#8BBFDD;}
	.st114{fill:#0A4A90;}
	.st115{fill:#B6D4E9;}
	.st116{fill:#79B5D9;}
	.st117{fill:none;stroke:#CCCCCC;}
	.st118{font-family:'ArialMT';}
	.st119{font-size:10px;}
	.st120{font-family:'Arial-BoldMT';}
	.st121{font-size:12px;}
	.st122{fill:#F6FAFF;}
	.st123{fill:#F5FAFE;}
	.st124{fill:#F4F9FE;}
	.st125{fill:#F3F8FE;}
	.st126{fill:#F2F8FD;}
	.st127{fill:#F1F7FD;}
	.st128{fill:#F0F6FD;}
	.st129{fill:#EFF6FC;}
	.st130{fill:#EBF4FB;}
	.st131{fill:#EAF3FB;}
	.st132{fill:#E9F2FB;}
	.st133{fill:#E7F1FA;}
	.st134{fill:#E6F0FA;}
	.st135{fill:#E5EFF9;}
	.st136{fill:#E3EEF9;}
	.st137{fill:#E2EDF8;}
	.st138{fill:#E1EDF8;}
	.st139{fill:#E0ECF8;}
	.st140{fill:#DEEBF7;}
	.st141{fill:#DDEAF7;}
	.st142{fill:#DCE9F6;}
	.st143{fill:#DAE8F6;}
	.st144{fill:#D9E7F5;}
	.st145{fill:#D6E6F4;}
	.st146{fill:#D5E5F4;}
	.st147{fill:#D4E5F4;}
	.st148{fill:#D3E4F3;}
	.st149{fill:#D1E3F3;}
	.st150{fill:#D0E2F2;}
	.st151{fill:#CFE1F2;}
	.st152{fill:#CEE1F2;}
	.st153{fill:#CCE0F1;}
	.st154{fill:#CBDFF1;}
	.st155{fill:#CADEF0;}
	.st156{fill:#C8DDEF;}
	.st157{fill:#C6DCEF;}
	.st158{fill:#C5DCEF;}
	.st159{fill:#C1DAED;}
	.st160{fill:#C0D9ED;}
	.st161{fill:#BDD7EC;}
	.st162{fill:#BBD7EB;}
	.st163{fill:#B6D5EA;}
	.st164{fill:#B3D3E9;}
	.st165{fill:#B0D2E7;}
	.st166{fill:#AED1E7;}
	.st167{fill:#ACD0E6;}
	.st168{fill:#ABCFE6;}
	.st169{fill:#A7CDE5;}
	.st170{fill:#A5CDE4;}
	.st171{fill:#A3CCE4;}
	.st172{fill:#A2CBE3;}
	.st173{fill:#A0CAE3;}
	.st174{fill:#9EC9E2;}
	.st175{fill:#9CC8E1;}
	.st176{fill:#9AC7E1;}
	.st177{fill:#94C4DF;}
	.st178{fill:#92C3DF;}
	.st179{fill:#90C2DE;}
	.st180{fill:#8EC1DE;}
	.st181{fill:#8CC0DD;}
	.st182{fill:#8ABFDD;}
	.st183{fill:#88BEDC;}
	.st184{fill:#86BDDC;}
	.st185{fill:#84BBDB;}
	.st186{fill:#82BADB;}
	.st187{fill:#7EB8DA;}
	.st188{fill:#7CB7D9;}
	.st189{fill:#78B4D8;}
	.st190{fill:#76B3D8;}
	.st191{fill:#72B1D7;}
	.st192{fill:#6CADD5;}
	.st193{fill:#6AACD4;}
	.st194{fill:#68ABD4;}
	.st195{fill:#66AAD3;}
	.st196{fill:#64A9D3;}
	.st197{fill:#60A6D1;}
	.st198{fill:#5FA5D1;}
	.st199{fill:#5BA3CF;}
	.st200{fill:#59A1CF;}
	.st201{fill:#569FCD;}
	.st202{fill:#549ECD;}
	.st203{fill:#529DCC;}
	.st204{fill:#519BCB;}
	.st205{fill:#4F9ACB;}
	.st206{fill:#4C98C9;}
	.st207{fill:#4A96C9;}
	.st208{fill:#4895C8;}
	.st209{fill:#4794C7;}
	.st210{fill:#408FC5;}
	.st211{fill:#3F8DC4;}
	.st212{fill:#3D8CC3;}
	.st213{fill:#3C8BC2;}
	.st214{fill:#3988C1;}
	.st215{fill:#3787C0;}
	.st216{fill:#3685C0;}
	.st217{fill:#3383BE;}
	.st218{fill:#3281BD;}
	.st219{fill:#3080BD;}
	.st220{fill:#2F7FBC;}
	.st221{fill:#2E7DBB;}
	.st222{fill:#2C7CBA;}
	.st223{fill:#2B7AB9;}
	.st224{fill:#2776B7;}
	.st225{fill:#2574B5;}
	.st226{fill:#2372B4;}
	.st227{fill:#2271B3;}
	.st228{fill:#216FB3;}
	.st229{fill:#206EB2;}
	.st230{fill:#1E6DB1;}
	.st231{fill:#1D6BB0;}
	.st232{fill:#1B69AE;}
	.st233{fill:#1A67AD;}
	.st234{fill:#1966AC;}
	.st235{fill:#1864AB;}
	.st236{fill:#1763AA;}
	.st237{fill:#1662A8;}
	.st238{fill:#1560A7;}
	.st239{fill:#135EA5;}
	.st240{fill:#125CA4;}
	.st241{fill:#115BA2;}
	.st242{fill:#105AA1;}
	.st243{fill:#1058A0;}
	.st244{fill:#0F579E;}
	.st245{fill:#0E559D;}
	.st246{fill:#0D539A;}
	.st247{fill:#0C5199;}
	.st248{fill:#0C5097;}
	.st249{fill:#0B4F95;}
	.st250{fill:#0B4D94;}
	.st251{fill:#0B4C92;}
	.st252{fill:#0A498F;}
	.st253{fill:#0A488D;}
	.st254{fill:#09468B;}
	.st255{fill:#094589;}
	.st256{fill:#094487;}
	.st257{fill:#094285;}
	.st258{fill:#094183;}
	.st259{fill:#083F81;}
	.st260{fill:#083E7F;}
	.st261{fill:#083D7D;}
	.st262{fill:#083B7B;}
	.st263{fill:#083A79;}
	.st264{fill:#083877;}
	.st265{fill:#083775;}
	.st266{fill:#083673;}
	.st267{fill:#083471;}
	.st268{fill:#08336F;}
</style>
<g id="viz" transform="translate(50,100)">
	<g>
		<path class="st0" d="M-4.3-77.9H331"/>
		<g transform="translate(14.0625,0)">
			<line class="st0" x1="-1.6" y1="-77.9" x2="-1.6" y2="-85.1"/>
			<text transform="matrix(0.7071 -0.7071 0.7071 0.7071 -3.3254 -85.5274)" class="st0 st1 st2">0</text>
		</g>
		<g transform="translate(42.1875,0)">
			<line class="st0" x1="3.8" y1="-77.9" x2="3.8" y2="-85.1"/>
			<text transform="matrix(0.7071 -0.7071 0.7071 0.7071 2.0823 -85.5278)" class="st0 st1 st2">1</text>
		</g>
		<g transform="translate(70.3125,0)">
			<line class="st0" x1="9.2" y1="-77.9" x2="9.2" y2="-85.1"/>
			<text transform="matrix(0.7071 -0.7071 0.7071 0.7071 7.4893 -85.5274)" class="st0 st1 st2">2</text>
		</g>
		<g transform="translate(98.4375,0)">
			<line class="st0" x1="14.6" y1="-77.9" x2="14.6" y2="-85.1"/>
			<text transform="matrix(0.7071 -0.7071 0.7071 0.7071 12.897 -85.5278)" class="st0 st1 st2">3</text>
		</g>
		<g transform="translate(126.5625,0)">
			<line class="st0" x1="20.1" y1="-77.9" x2="20.1" y2="-85.1"/>
			<text transform="matrix(0.7071 -0.7071 0.7071 0.7071 18.3054 -85.5275)" class="st0 st1 st2">4</text>
		</g>
		<g transform="translate(154.6875,0)">
			<line class="st0" x1="25.5" y1="-77.9" x2="25.5" y2="-85.1"/>
			<text transform="matrix(0.7071 -0.7071 0.7071 0.7071 23.7116 -85.5278)" class="st0 st1 st2">5</text>
		</g>
		<g transform="translate(182.8125,0)">
			<line class="st0" x1="30.9" y1="-77.9" x2="30.9" y2="-85.1"/>
			<text transform="matrix(0.7071 -0.7071 0.7071 0.7071 29.12 -85.5275)" class="st0 st1 st2">6</text>
		</g>
		<g transform="translate(210.9375,0)">
			<line class="st0" x1="36.3" y1="-77.9" x2="36.3" y2="-85.1"/>
			<text transform="matrix(0.7071 -0.7071 0.7071 0.7071 34.5263 -85.5278)" class="st0 st1 st2">7</text>
		</g>
		<g transform="translate(239.0625,0)">
			<line class="st0" x1="41.7" y1="-77.9" x2="41.7" y2="-85.1"/>
			<text transform="matrix(0.7071 -0.7071 0.7071 0.7071 39.9347 -85.5275)" class="st0 st1 st2">8</text>
		</g>
		<g transform="translate(267.1875,0)">
			<line class="st0" x1="47.1" y1="-77.9" x2="47.1" y2="-85.1"/>
			<text transform="matrix(0.7071 -0.7071 0.7071 0.7071 45.3424 -85.5278)" class="st0 st1 st2">9</text>
		</g>
	</g>
	<g>
		<path class="st0" d="M-4.3-77.9v536.5"/>
		<g transform="translate(0,14.0625)">
			<line class="st0" x1="-4.3" y1="-75.3" x2="-11.4" y2="-75.3"/>
			<g>
				<g class="st3">
					<path d="M-49.6-71.2h2.4v-7h-2v-1.2c1.1-0.2,1.8-0.5,2.4-0.9h1.4v9.1h2.1v1.6h-6.4V-71.2z"/>
					<path d="M-41.6-72.3c0-1.3,0.9-2.2,1.9-2.7v-0.1c-0.8-0.6-1.4-1.4-1.4-2.5c0-1.7,1.4-2.8,3.2-2.8c1.9,0,3.1,1.2,3.1,2.9
						c0,1.1-0.7,1.9-1.4,2.4v0.1c1,0.6,1.8,1.3,1.8,2.8c0,1.6-1.4,2.9-3.6,2.9C-40.1-69.4-41.6-70.6-41.6-72.3z M-36.3-72.3
						c0-1.2-1.1-1.6-2.5-2.2c-0.7,0.5-1.1,1.2-1.1,2c0,1,0.9,1.7,1.9,1.7C-37-70.8-36.3-71.3-36.3-72.3z M-36.5-77.4
						c0-0.9-0.6-1.6-1.6-1.6c-0.8,0-1.4,0.5-1.4,1.5c0,1.1,1,1.5,2.1,2C-36.8-76.1-36.5-76.7-36.5-77.4z"/>
					<path d="M-28.1-78.6h-5v-1.6h7.1v1.2c-2.5,3.1-2.9,5.3-3.1,9.4H-31C-30.8-73.4-30.1-75.7-28.1-78.6z"/>
					<path d="M-24.6-74.9c0-3.6,1.4-5.5,3.6-5.5c2.2,0,3.6,1.9,3.6,5.5c0,3.6-1.4,5.6-3.6,5.6C-23.2-69.4-24.6-71.4-24.6-74.9z
						 M-19.3-74.9c0-3-0.7-4-1.8-4c-1,0-1.8,1-1.8,4c0,3,0.7,4,1.8,4C-20-70.9-19.3-71.9-19.3-74.9z"/>
					<path d="M-16.3-70.5l0.9-1.2c0.7,0.6,1.4,0.9,2.3,0.9c0.9,0,1.3-0.4,1.3-1c0-0.7-0.9-1-1.8-1.3c-1.1-0.4-2.3-1-2.3-2.4
						c0-1.4,1.1-2.5,3-2.5c1.1,0,2,0.5,2.7,1l-0.9,1.2c-0.6-0.4-1.1-0.7-1.8-0.7c-0.8,0-1.2,0.4-1.2,0.9c0,0.6,0.8,0.9,1.7,1.2
						c1.1,0.4,2.3,0.9,2.3,2.5c0,1.4-1.1,2.5-3.2,2.5C-14.4-69.4-15.5-69.9-16.3-70.5z"/>
				</g>
			</g>
		</g>
		<g transform="translate(0,42.1875)">
			<line class="st0" x1="-4.3" y1="-69.9" x2="-11.4" y2="-69.9"/>
			<g>
				<g class="st3">
					<path d="M-49.6-65.7h2.4v-7h-2v-1.2c1.1-0.2,1.8-0.5,2.4-0.9h1.4v9.1h2.1v1.6h-6.4V-65.7z"/>
					<path d="M-41.6-66.9c0-1.3,0.9-2.2,1.9-2.7v-0.1c-0.8-0.6-1.4-1.4-1.4-2.5c0-1.7,1.4-2.8,3.2-2.8c1.9,0,3.1,1.2,3.1,2.9
						c0,1.1-0.7,1.9-1.4,2.4v0.1c1,0.6,1.8,1.3,1.8,2.8c0,1.6-1.4,2.9-3.6,2.9C-40.1-64-41.6-65.2-41.6-66.9z M-36.3-66.9
						c0-1.2-1.1-1.6-2.5-2.2c-0.7,0.5-1.1,1.2-1.1,2c0,1,0.9,1.7,1.9,1.7C-37-65.3-36.3-65.9-36.3-66.9z M-36.5-72
						c0-0.9-0.6-1.6-1.6-1.6c-0.8,0-1.4,0.5-1.4,1.5c0,1.1,1,1.5,2.1,2C-36.8-70.7-36.5-71.3-36.5-72z"/>
					<path d="M-33.1-66.9c0-1.3,0.9-2.2,1.9-2.7v-0.1c-0.8-0.6-1.4-1.4-1.4-2.5c0-1.7,1.4-2.8,3.2-2.8c1.9,0,3.1,1.2,3.1,2.9
						c0,1.1-0.7,1.9-1.4,2.4v0.1c1,0.6,1.8,1.3,1.8,2.8c0,1.6-1.4,2.9-3.6,2.9C-31.6-64-33.1-65.2-33.1-66.9z M-27.7-66.9
						c0-1.2-1.1-1.6-2.5-2.2c-0.7,0.5-1.1,1.2-1.1,2c0,1,0.9,1.7,1.9,1.7C-28.5-65.3-27.7-65.9-27.7-66.9z M-28-72
						c0-0.9-0.6-1.6-1.6-1.6c-0.8,0-1.4,0.5-1.4,1.5c0,1.1,1,1.5,2.1,2C-28.3-70.7-28-71.3-28-72z"/>
					<path d="M-24.6-69.5c0-3.6,1.4-5.5,3.6-5.5c2.2,0,3.6,1.9,3.6,5.5c0,3.6-1.4,5.6-3.6,5.6C-23.2-64-24.6-65.9-24.6-69.5z
						 M-19.3-69.5c0-3-0.7-4-1.8-4c-1,0-1.8,1-1.8,4c0,3,0.7,4,1.8,4C-20-65.5-19.3-66.5-19.3-69.5z"/>
					<path d="M-16.3-65.1l0.9-1.2c0.7,0.6,1.4,0.9,2.3,0.9c0.9,0,1.3-0.4,1.3-1c0-0.7-0.9-1-1.8-1.3c-1.1-0.4-2.3-1-2.3-2.4
						c0-1.4,1.1-2.5,3-2.5c1.1,0,2,0.5,2.7,1l-0.9,1.2c-0.6-0.4-1.1-0.7-1.8-0.7c-0.8,0-1.2,0.4-1.2,0.9c0,0.6,0.8,0.9,1.7,1.2
						c1.1,0.4,2.3,0.9,2.3,2.5c0,1.4-1.1,2.5-3.2,2.5C-14.4-64-15.5-64.4-16.3-65.1z"/>
				</g>
			</g>
		</g>
		<g transform="translate(0,70.3125)">
			<line class="st0" x1="-4.3" y1="-64.5" x2="-11.4" y2="-64.5"/>
			<g>
				<g class="st3">
					<path d="M-49.6-60.3h2.4v-7h-2v-1.2c1.1-0.2,1.8-0.5,2.4-0.9h1.4v9.1h2.1v1.6h-6.4V-60.3z"/>
					<path d="M-41.6-61.4c0-1.3,0.9-2.2,1.9-2.7v-0.1c-0.8-0.6-1.4-1.4-1.4-2.5c0-1.7,1.4-2.8,3.2-2.8c1.9,0,3.1,1.2,3.1,2.9
						c0,1.1-0.7,1.9-1.4,2.4v0.1c1,0.6,1.8,1.3,1.8,2.8c0,1.6-1.4,2.9-3.6,2.9C-40.1-58.5-41.6-59.7-41.6-61.4z M-36.3-61.5
						c0-1.2-1.1-1.6-2.5-2.2c-0.7,0.5-1.1,1.2-1.1,2c0,1,0.9,1.7,1.9,1.7C-37-59.9-36.3-60.5-36.3-61.5z M-36.5-66.6
						c0-0.9-0.6-1.6-1.6-1.6c-0.8,0-1.4,0.5-1.4,1.5c0,1.1,1,1.5,2.1,2C-36.8-65.3-36.5-65.9-36.5-66.6z"/>
					<path d="M-33-59.7l1-1.2c0.4,0.5,1.1,0.8,1.7,0.8c1.4,0,2.5-1.1,2.5-4.3c0-2.6-0.8-3.7-2-3.7c-0.9,0-1.6,0.7-1.6,2
						c0,1.3,0.6,1.9,1.7,1.9c0.6,0,1.4-0.4,2-1.3l0.1,1.3c-0.6,0.8-1.6,1.4-2.4,1.4c-1.8,0-3.1-1.1-3.1-3.3c0-2.1,1.5-3.5,3.3-3.5
						c2.1,0,3.8,1.6,3.8,5.2c0,4.1-2,5.8-4.2,5.8C-31.5-58.5-32.4-59.1-33-59.7z"/>
					<path d="M-24.6-64.1c0-3.6,1.4-5.5,3.6-5.5c2.2,0,3.6,1.9,3.6,5.5c0,3.6-1.4,5.6-3.6,5.6C-23.2-58.5-24.6-60.5-24.6-64.1z
						 M-19.3-64.1c0-3-0.7-4-1.8-4c-1,0-1.8,1-1.8,4c0,3,0.7,4,1.8,4C-20-60-19.3-61.1-19.3-64.1z"/>
					<path d="M-16.3-59.7l0.9-1.2c0.7,0.6,1.4,0.9,2.3,0.9c0.9,0,1.3-0.4,1.3-1c0-0.7-0.9-1-1.8-1.3c-1.1-0.4-2.3-1-2.3-2.4
						c0-1.4,1.1-2.5,3-2.5c1.1,0,2,0.5,2.7,1l-0.9,1.2c-0.6-0.4-1.1-0.7-1.8-0.7c-0.8,0-1.2,0.4-1.2,0.9c0,0.6,0.8,0.9,1.7,1.2
						c1.1,0.4,2.3,0.9,2.3,2.5c0,1.4-1.1,2.5-3.2,2.5C-14.4-58.5-15.5-59-16.3-59.7z"/>
				</g>
			</g>
		</g>
		<g transform="translate(0,98.4375)">
			<line class="st0" x1="-4.3" y1="-59" x2="-11.4" y2="-59"/>
			<g>
				<g class="st3">
					<path d="M-49.6-54.9h2.4v-7h-2V-63c1.1-0.2,1.8-0.5,2.4-0.9h1.4v9.1h2.1v1.6h-6.4V-54.9z"/>
					<path d="M-41.5-54.3l1-1.2c0.4,0.5,1.1,0.8,1.7,0.8c1.4,0,2.5-1.1,2.5-4.3c0-2.6-0.8-3.7-2-3.7c-0.9,0-1.6,0.7-1.6,2
						c0,1.3,0.6,1.9,1.7,1.9c0.6,0,1.4-0.4,2-1.3l0.1,1.3c-0.6,0.8-1.6,1.4-2.4,1.4c-1.8,0-3.1-1.1-3.1-3.3c0-2.1,1.5-3.5,3.3-3.5
						c2.1,0,3.8,1.6,3.8,5.2c0,4.1-2,5.8-4.2,5.8C-40-53.1-40.9-53.6-41.5-54.3z"/>
					<path d="M-33.1-58.6c0-3.6,1.4-5.5,3.6-5.5c2.2,0,3.6,1.9,3.6,5.5c0,3.6-1.4,5.6-3.6,5.6C-31.7-53.1-33.1-55.1-33.1-58.6z
						 M-27.8-58.6c0-3-0.7-4-1.8-4c-1,0-1.8,1-1.8,4c0,3,0.7,4,1.8,4C-28.5-54.6-27.8-55.6-27.8-58.6z"/>
					<path d="M-24.6-58.6c0-3.6,1.4-5.5,3.6-5.5c2.2,0,3.6,1.9,3.6,5.5c0,3.6-1.4,5.6-3.6,5.6C-23.2-53.1-24.6-55.1-24.6-58.6z
						 M-19.3-58.6c0-3-0.7-4-1.8-4c-1,0-1.8,1-1.8,4c0,3,0.7,4,1.8,4C-20-54.6-19.3-55.6-19.3-58.6z"/>
					<path d="M-16.3-54.2l0.9-1.2c0.7,0.6,1.4,0.9,2.3,0.9c0.9,0,1.3-0.4,1.3-1c0-0.7-0.9-1-1.8-1.3c-1.1-0.4-2.3-1-2.3-2.4
						c0-1.4,1.1-2.5,3-2.5c1.1,0,2,0.5,2.7,1l-0.9,1.2c-0.6-0.4-1.1-0.7-1.8-0.7c-0.8,0-1.2,0.4-1.2,0.9c0,0.6,0.8,0.9,1.7,1.2
						c1.1,0.4,2.3,0.9,2.3,2.5c0,1.4-1.1,2.5-3.2,2.5C-14.4-53.1-15.5-53.6-16.3-54.2z"/>
				</g>
			</g>
		</g>
		<g transform="translate(0,126.5625)">
			<line class="st0" x1="-4.3" y1="-53.6" x2="-11.4" y2="-53.6"/>
			<g>
				<g class="st3">
					<path d="M-49.6-49.4h2.4v-7h-2v-1.2c1.1-0.2,1.8-0.5,2.4-0.9h1.4v9.1h2.1v1.6h-6.4V-49.4z"/>
					<path d="M-41.5-48.9l1-1.2c0.4,0.5,1.1,0.8,1.7,0.8c1.4,0,2.5-1.1,2.5-4.3c0-2.6-0.8-3.7-2-3.7c-0.9,0-1.6,0.7-1.6,2
						c0,1.3,0.6,1.9,1.7,1.9c0.6,0,1.4-0.4,2-1.3l0.1,1.3c-0.6,0.8-1.6,1.4-2.4,1.4c-1.8,0-3.1-1.1-3.1-3.3c0-2.1,1.5-3.5,3.3-3.5
						c2.1,0,3.8,1.6,3.8,5.2c0,4.1-2,5.8-4.2,5.8C-40-47.7-40.9-48.2-41.5-48.9z"/>
					<path d="M-32.6-49.4h2.4v-7h-2v-1.2c1.1-0.2,1.8-0.5,2.4-0.9h1.4v9.1h2.1v1.6h-6.4V-49.4z"/>
					<path d="M-24.6-53.2c0-3.6,1.4-5.5,3.6-5.5c2.2,0,3.6,1.9,3.6,5.5c0,3.6-1.4,5.6-3.6,5.6C-23.2-47.7-24.6-49.6-24.6-53.2z
						 M-19.3-53.2c0-3-0.7-4-1.8-4c-1,0-1.8,1-1.8,4c0,3,0.7,4,1.8,4C-20-49.2-19.3-50.2-19.3-53.2z"/>
					<path d="M-16.3-48.8l0.9-1.2c0.7,0.6,1.4,0.9,2.3,0.9c0.9,0,1.3-0.4,1.3-1c0-0.7-0.9-1-1.8-1.3c-1.1-0.4-2.3-1-2.3-2.4
						c0-1.4,1.1-2.5,3-2.5c1.1,0,2,0.5,2.7,1l-0.9,1.2c-0.6-0.4-1.1-0.7-1.8-0.7c-0.8,0-1.2,0.4-1.2,0.9c0,0.6,0.8,0.9,1.7,1.2
						c1.1,0.4,2.3,0.9,2.3,2.5c0,1.4-1.1,2.5-3.2,2.5C-14.4-47.7-15.5-48.1-16.3-48.8z"/>
				</g>
			</g>
		</g>
		<g transform="translate(0,154.6875)">
			<line class="st0" x1="-4.3" y1="-48.2" x2="-11.4" y2="-48.2"/>
			<g>
				<g class="st3">
					<path d="M-49.8-44h2.4v-7h-2v-1.2c1.1-0.2,1.8-0.5,2.5-0.9h1.4v9.1h2.1v1.6h-6.4V-44z"/>
					<path d="M-41.6-43.5l1-1.2c0.4,0.5,1.1,0.8,1.7,0.8c1.4,0,2.5-1.1,2.5-4.3c0-2.6-0.8-3.7-2-3.7c-0.9,0-1.6,0.7-1.6,2
						c0,1.3,0.6,1.9,1.7,1.9c0.6,0,1.4-0.4,2-1.3l0.1,1.3c-0.6,0.8-1.6,1.4-2.4,1.4c-1.8,0-3.1-1.1-3.1-3.3c0-2.1,1.5-3.5,3.3-3.5
						c2.1,0,3.8,1.6,3.8,5.2c0,4.1-2,5.8-4.2,5.8C-40.1-42.3-41-42.8-41.6-43.5z"/>
					<path d="M-33.2-43.6c2.9-2.9,4.8-4.7,4.8-6.4c0-1.1-0.6-1.8-1.8-1.8c-0.8,0-1.5,0.5-2.1,1.2l-1.1-1.1c1-1,1.9-1.6,3.4-1.6
						c2,0,3.4,1.3,3.4,3.3c0,1.9-1.7,3.8-3.9,6c0.6-0.1,1.3-0.1,1.8-0.1h2.6v1.6h-7.2V-43.6z"/>
					<path d="M-24.6-47.8c0-3.6,1.4-5.5,3.6-5.5c2.2,0,3.6,1.9,3.6,5.5c0,3.6-1.4,5.6-3.6,5.6C-23.2-42.3-24.6-44.2-24.6-47.8z
						 M-19.3-47.8c0-3-0.7-4-1.8-4s-1.8,1-1.8,4c0,3,0.7,4,1.8,4S-19.3-44.8-19.3-47.8z"/>
					<path d="M-16.3-43.4l0.9-1.2c0.7,0.6,1.4,0.9,2.3,0.9c0.9,0,1.3-0.4,1.3-1c0-0.7-0.9-1-1.8-1.3c-1.1-0.4-2.3-1-2.3-2.4
						c0-1.4,1.1-2.5,3-2.5c1.1,0,2.1,0.5,2.7,1l-0.9,1.2c-0.6-0.4-1.2-0.7-1.8-0.7c-0.8,0-1.2,0.4-1.2,0.9c0,0.6,0.8,0.9,1.7,1.2
						c1.1,0.4,2.4,0.9,2.4,2.5c0,1.4-1.1,2.5-3.2,2.5C-14.3-42.3-15.5-42.7-16.3-43.4z"/>
				</g>
			</g>
		</g>
		<g transform="translate(0,182.8125)">
			<line class="st0" x1="-4.3" y1="-42.8" x2="-11.4" y2="-42.8"/>
			<g>
				<g class="st3">
					<path d="M-49.8-38.6h2.4v-7h-2v-1.2c1.1-0.2,1.8-0.5,2.5-0.9h1.4v9.1h2.1v1.6h-6.4V-38.6z"/>
					<path d="M-41.6-38l1-1.2c0.4,0.5,1.1,0.8,1.7,0.8c1.4,0,2.5-1.1,2.5-4.3c0-2.6-0.8-3.7-2-3.7c-0.9,0-1.6,0.7-1.6,2
						c0,1.3,0.6,1.9,1.7,1.9c0.6,0,1.4-0.4,2-1.3l0.1,1.3c-0.6,0.8-1.6,1.4-2.4,1.4c-1.8,0-3.1-1.1-3.1-3.3c0-2.1,1.5-3.5,3.3-3.5
						c2.1,0,3.8,1.6,3.8,5.2c0,4.1-2,5.8-4.2,5.8C-40.1-36.8-41-37.4-41.6-38z"/>
					<path d="M-33.5-38.3l0.9-1.2c0.6,0.6,1.5,1.2,2.5,1.2c1.2,0,2-0.6,2-1.6c0-1.1-0.7-1.8-3.1-1.8v-1.4c2.1,0,2.8-0.7,2.8-1.7
						c0-0.9-0.6-1.4-1.6-1.4c-0.8,0-1.5,0.4-2.1,1l-1-1.2c0.9-0.8,1.9-1.3,3.2-1.3c2,0,3.4,1,3.4,2.8c0,1.2-0.7,2-1.8,2.4v0.1
						c1.3,0.3,2.2,1.2,2.2,2.6c0,1.9-1.7,3.1-3.7,3.1C-31.6-36.8-32.7-37.5-33.5-38.3z"/>
					<path d="M-24.6-42.4c0-3.6,1.4-5.5,3.6-5.5c2.2,0,3.6,1.9,3.6,5.5c0,3.6-1.4,5.6-3.6,5.6C-23.2-36.8-24.6-38.8-24.6-42.4z
						 M-19.3-42.4c0-3-0.7-4-1.8-4s-1.8,1-1.8,4c0,3,0.7,4,1.8,4S-19.3-39.4-19.3-42.4z"/>
					<path d="M-16.3-38l0.9-1.2c0.7,0.6,1.4,0.9,2.3,0.9c0.9,0,1.3-0.4,1.3-1c0-0.7-0.9-1-1.8-1.3c-1.1-0.4-2.3-1-2.3-2.4
						c0-1.4,1.1-2.5,3-2.5c1.1,0,2.1,0.5,2.7,1l-0.9,1.2c-0.6-0.4-1.2-0.7-1.8-0.7c-0.8,0-1.2,0.4-1.2,0.9c0,0.6,0.8,0.9,1.7,1.2
						c1.1,0.4,2.4,0.9,2.4,2.5c0,1.4-1.1,2.5-3.2,2.5C-14.3-36.8-15.5-37.3-16.3-38z"/>
				</g>
			</g>
		</g>
		<g transform="translate(0,210.9375)">
			<line class="st0" x1="-4.3" y1="-37.4" x2="-11.4" y2="-37.4"/>
			<g>
				<g class="st3">
					<path d="M-49.8-33.2h2.4v-7h-2v-1.2c1.1-0.2,1.8-0.5,2.5-0.9h1.4v9.1h2.1v1.6h-6.4V-33.2z"/>
					<path d="M-41.6-32.6l1-1.2c0.4,0.5,1.1,0.8,1.7,0.8c1.4,0,2.5-1.1,2.5-4.3c0-2.6-0.8-3.7-2-3.7c-0.9,0-1.6,0.7-1.6,2
						c0,1.3,0.6,1.9,1.7,1.9c0.6,0,1.4-0.4,2-1.3l0.1,1.3c-0.6,0.8-1.6,1.4-2.4,1.4c-1.8,0-3.1-1.1-3.1-3.3c0-2.1,1.5-3.5,3.3-3.5
						c2.1,0,3.8,1.6,3.8,5.2c0,4.1-2,5.8-4.2,5.8C-40.1-31.4-41-32-41.6-32.6z"/>
					<path d="M-28.9-38.3c0-0.6,0.1-1.6,0.1-2.2h-0.1c-0.3,0.6-0.6,1.1-0.9,1.6l-1.9,3h5.9v1.5h-7.8v-1.3l4.2-6.6h2.3v10.6h-1.8
						V-38.3z"/>
					<path d="M-24.6-37c0-3.6,1.4-5.5,3.6-5.5c2.2,0,3.6,1.9,3.6,5.5c0,3.6-1.4,5.6-3.6,5.6C-23.2-31.4-24.6-33.4-24.6-37z
						 M-19.3-37c0-3-0.7-4-1.8-4s-1.8,1-1.8,4c0,3,0.7,4,1.8,4S-19.3-34-19.3-37z"/>
					<path d="M-16.3-32.6l0.9-1.2c0.7,0.6,1.4,0.9,2.3,0.9c0.9,0,1.3-0.4,1.3-1c0-0.7-0.9-1-1.8-1.3c-1.1-0.4-2.3-1-2.3-2.4
						c0-1.4,1.1-2.5,3-2.5c1.1,0,2.1,0.5,2.7,1l-0.9,1.2c-0.6-0.4-1.2-0.7-1.8-0.7c-0.8,0-1.2,0.4-1.2,0.9c0,0.6,0.8,0.9,1.7,1.2
						C-11.3-36-10-35.5-10-34c0,1.4-1.1,2.5-3.2,2.5C-14.3-31.4-15.5-31.9-16.3-32.6z"/>
				</g>
			</g>
		</g>
		<g transform="translate(0,239.0625)">
			<line class="st0" x1="-4.3" y1="-32" x2="-11.4" y2="-32"/>
			<g>
				<g class="st3">
					<path d="M-49.8-27.8h2.4v-7h-2V-36c1.1-0.2,1.8-0.5,2.5-0.9h1.4v9.1h2.1v1.6h-6.4V-27.8z"/>
					<path d="M-41.6-27.2l1-1.2c0.4,0.5,1.1,0.8,1.7,0.8c1.4,0,2.5-1.1,2.5-4.3c0-2.6-0.8-3.7-2-3.7c-0.9,0-1.6,0.7-1.6,2
						c0,1.3,0.6,1.9,1.7,1.9c0.6,0,1.4-0.4,2-1.3l0.1,1.3c-0.6,0.8-1.6,1.4-2.4,1.4c-1.8,0-3.1-1.1-3.1-3.3c0-2.1,1.5-3.5,3.3-3.5
						c2.1,0,3.8,1.6,3.8,5.2c0,4.1-2,5.8-4.2,5.8C-40.1-26-41-26.6-41.6-27.2z"/>
					<path d="M-33.5-27.5l0.9-1.2c0.6,0.6,1.4,1.1,2.5,1.1c1.2,0,2.1-0.8,2.1-2c0-1.3-0.8-2-2-2c-0.7,0-1.1,0.2-1.7,0.6l-0.9-0.6
						l0.3-5.2h5.7v1.6h-4l-0.2,2.6c0.4-0.2,0.9-0.3,1.4-0.3c1.8,0,3.3,1,3.3,3.3c0,2.3-1.8,3.7-3.7,3.7
						C-31.6-26-32.7-26.7-33.5-27.5z"/>
					<path d="M-24.6-31.6c0-3.6,1.4-5.5,3.6-5.5c2.2,0,3.6,1.9,3.6,5.5c0,3.6-1.4,5.6-3.6,5.6C-23.2-26-24.6-28-24.6-31.6z
						 M-19.3-31.6c0-3-0.7-4-1.8-4s-1.8,1-1.8,4s0.7,4,1.8,4S-19.3-28.6-19.3-31.6z"/>
					<path d="M-16.3-27.2l0.9-1.2c0.7,0.6,1.4,0.9,2.3,0.9c0.9,0,1.3-0.4,1.3-1c0-0.7-0.9-1-1.8-1.3c-1.1-0.4-2.3-1-2.3-2.4
						c0-1.4,1.1-2.5,3-2.5c1.1,0,2.1,0.5,2.7,1l-0.9,1.2c-0.6-0.4-1.2-0.7-1.8-0.7c-0.8,0-1.2,0.4-1.2,0.9c0,0.6,0.8,0.9,1.7,1.2
						c1.1,0.4,2.4,0.9,2.4,2.5c0,1.4-1.1,2.5-3.2,2.5C-14.3-26-15.5-26.5-16.3-27.2z"/>
				</g>
			</g>
		</g>
		<g transform="translate(0,267.1875)">
			<line class="st0" x1="-4.3" y1="-26.6" x2="-11.4" y2="-26.6"/>
			<g>
				<g class="st3">
					<path d="M-49.8-22.4h2.4v-7h-2v-1.2c1.1-0.2,1.8-0.5,2.5-0.9h1.4v9.1h2.1v1.6h-6.4V-22.4z"/>
					<path d="M-41.6-21.8l1-1.2c0.4,0.5,1.1,0.8,1.7,0.8c1.4,0,2.5-1.1,2.5-4.3c0-2.6-0.8-3.7-2-3.7c-0.9,0-1.6,0.7-1.6,2
						c0,1.3,0.6,1.9,1.7,1.9c0.6,0,1.4-0.4,2-1.3l0.1,1.3c-0.6,0.8-1.6,1.4-2.4,1.4c-1.8,0-3.1-1.1-3.1-3.3c0-2.1,1.5-3.5,3.3-3.5
						c2.1,0,3.8,1.6,3.8,5.2c0,4.1-2,5.8-4.2,5.8C-40.1-20.6-41-21.2-41.6-21.8z"/>
					<path d="M-33.1-25.8c0-4.1,2-5.8,4.2-5.8c1.3,0,2.2,0.5,2.8,1.2l-1,1.2c-0.4-0.5-1.1-0.8-1.7-0.8c-1.4,0-2.5,1.1-2.5,4.3
						c0,2.6,0.8,3.7,2,3.7c0.9,0,1.6-0.7,1.6-2c0-1.3-0.6-1.9-1.7-1.9c-0.6,0-1.4,0.4-2,1.3l-0.1-1.3c0.6-0.8,1.6-1.4,2.4-1.4
						c1.8,0,3.1,1.1,3.1,3.3c0,2.1-1.5,3.5-3.3,3.5C-31.4-20.6-33.1-22.2-33.1-25.8z"/>
					<path d="M-24.6-26.2c0-3.6,1.4-5.5,3.6-5.5c2.2,0,3.6,1.9,3.6,5.5c0,3.6-1.4,5.6-3.6,5.6C-23.2-20.6-24.6-22.6-24.6-26.2z
						 M-19.3-26.2c0-3-0.7-4-1.8-4s-1.8,1-1.8,4s0.7,4,1.8,4S-19.3-23.2-19.3-26.2z"/>
					<path d="M-16.3-21.8l0.9-1.2c0.7,0.6,1.4,0.9,2.3,0.9c0.9,0,1.3-0.4,1.3-1c0-0.7-0.9-1-1.8-1.3c-1.1-0.4-2.3-1-2.3-2.4
						c0-1.4,1.1-2.5,3-2.5c1.1,0,2.1,0.5,2.7,1l-0.9,1.2c-0.6-0.4-1.2-0.7-1.8-0.7c-0.8,0-1.2,0.4-1.2,0.9c0,0.6,0.8,0.9,1.7,1.2
						c1.1,0.4,2.4,0.9,2.4,2.5c0,1.4-1.1,2.5-3.2,2.5C-14.3-20.6-15.5-21.1-16.3-21.8z"/>
				</g>
			</g>
		</g>
		<g transform="translate(0,295.3125)">
			<line class="st0" x1="-4.3" y1="-21.2" x2="-11.4" y2="-21.2"/>
			<g>
				<g class="st3">
					<path d="M-49.8-17h2.4v-7h-2v-1.2c1.1-0.2,1.8-0.5,2.5-0.9h1.4v9.1h2.1v1.6h-6.4V-17z"/>
					<path d="M-41.6-16.4l1-1.2c0.4,0.5,1.1,0.8,1.7,0.8c1.4,0,2.5-1.1,2.5-4.3c0-2.6-0.8-3.7-2-3.7c-0.9,0-1.6,0.7-1.6,2
						c0,1.3,0.6,1.9,1.7,1.9c0.6,0,1.4-0.4,2-1.3l0.1,1.3c-0.6,0.8-1.6,1.4-2.4,1.4c-1.8,0-3.1-1.1-3.1-3.3c0-2.1,1.5-3.5,3.3-3.5
						c2.1,0,3.8,1.6,3.8,5.2c0,4.1-2,5.8-4.2,5.8C-40.1-15.2-41-15.8-41.6-16.4z"/>
					<path d="M-28.1-24.4h-5V-26h7.1v1.2c-2.5,3.1-2.9,5.3-3.1,9.4h-2C-30.9-19.2-30.2-21.6-28.1-24.4z"/>
					<path d="M-24.6-20.8c0-3.6,1.4-5.5,3.6-5.5c2.2,0,3.6,1.9,3.6,5.5c0,3.6-1.4,5.6-3.6,5.6C-23.2-15.2-24.6-17.2-24.6-20.8z
						 M-19.3-20.8c0-3-0.7-4-1.8-4s-1.8,1-1.8,4s0.7,4,1.8,4S-19.3-17.8-19.3-20.8z"/>
					<path d="M-16.3-16.4l0.9-1.2c0.7,0.6,1.4,0.9,2.3,0.9c0.9,0,1.3-0.4,1.3-1c0-0.7-0.9-1-1.8-1.3c-1.1-0.4-2.3-1-2.3-2.4
						c0-1.4,1.1-2.5,3-2.5c1.1,0,2.1,0.5,2.7,1l-0.9,1.2c-0.6-0.4-1.2-0.7-1.8-0.7c-0.8,0-1.2,0.4-1.2,0.9c0,0.6,0.8,0.9,1.7,1.2
						c1.1,0.4,2.4,0.9,2.4,2.5c0,1.4-1.1,2.5-3.2,2.5C-14.3-15.2-15.5-15.7-16.3-16.4z"/>
				</g>
			</g>
		</g>
		<g transform="translate(0,323.4375)">
			<line class="st0" x1="-4.3" y1="-15.8" x2="-11.4" y2="-15.8"/>
			<g>
				<g class="st3">
					<path d="M-49.8-11.6h2.4v-7h-2v-1.2c1.1-0.2,1.8-0.5,2.5-0.9h1.4v9.1h2.1v1.6h-6.4V-11.6z"/>
					<path d="M-41.6-11l1-1.2c0.4,0.5,1.1,0.8,1.7,0.8c1.4,0,2.5-1.1,2.5-4.3c0-2.6-0.8-3.7-2-3.7c-0.9,0-1.6,0.7-1.6,2
						c0,1.3,0.6,1.9,1.7,1.9c0.6,0,1.4-0.4,2-1.3l0.1,1.3c-0.6,0.8-1.6,1.4-2.4,1.4c-1.8,0-3.1-1.1-3.1-3.3c0-2.1,1.5-3.5,3.3-3.5
						c2.1,0,3.8,1.6,3.8,5.2c0,4.1-2,5.8-4.2,5.8C-40.1-9.8-41-10.3-41.6-11z"/>
					<path d="M-33.2-12.7c0-1.3,0.9-2.2,1.9-2.7v-0.1c-0.8-0.6-1.5-1.4-1.5-2.5c0-1.7,1.4-2.8,3.2-2.8c1.9,0,3.1,1.2,3.1,2.9
						c0,1.1-0.7,1.9-1.4,2.4v0.1c1,0.6,1.8,1.3,1.8,2.8c0,1.6-1.4,2.9-3.6,2.9C-31.6-9.8-33.2-11-33.2-12.7z M-27.8-12.8
						c0-1.2-1.1-1.6-2.6-2.2c-0.7,0.5-1.1,1.2-1.1,2c0,1,0.9,1.7,2,1.7C-28.5-11.2-27.8-11.8-27.8-12.8z M-28-17.8
						c0-0.9-0.6-1.6-1.6-1.6c-0.8,0-1.4,0.5-1.4,1.5c0,1.1,1,1.5,2.1,2C-28.3-16.6-28-17.2-28-17.8z"/>
					<path d="M-24.6-15.4c0-3.6,1.4-5.5,3.6-5.5c2.2,0,3.6,1.9,3.6,5.5c0,3.6-1.4,5.6-3.6,5.6C-23.2-9.8-24.6-11.8-24.6-15.4z
						 M-19.3-15.4c0-3-0.7-4-1.8-4s-1.8,1-1.8,4s0.7,4,1.8,4S-19.3-12.4-19.3-15.4z"/>
					<path d="M-16.3-10.9l0.9-1.2c0.7,0.6,1.4,0.9,2.3,0.9c0.9,0,1.3-0.4,1.3-1c0-0.7-0.9-1-1.8-1.3c-1.1-0.4-2.3-1-2.3-2.4
						c0-1.4,1.1-2.5,3-2.5c1.1,0,2.1,0.5,2.7,1l-0.9,1.2c-0.6-0.4-1.2-0.7-1.8-0.7c-0.8,0-1.2,0.4-1.2,0.9c0,0.6,0.8,0.9,1.7,1.2
						c1.1,0.4,2.4,0.9,2.4,2.5c0,1.4-1.1,2.5-3.2,2.5C-14.3-9.8-15.5-10.3-16.3-10.9z"/>
				</g>
			</g>
		</g>
		<g transform="translate(0,351.5625)">
			<line class="st0" x1="-4.3" y1="-10.3" x2="-11.4" y2="-10.3"/>
			<g>
				<g class="st3">
					<path d="M-49.8-6.2h2.4v-7h-2v-1.2c1.1-0.2,1.8-0.5,2.5-0.9h1.4v9.1h2.1v1.6h-6.4V-6.2z"/>
					<path d="M-41.6-5.6l1-1.2c0.4,0.5,1.1,0.8,1.7,0.8c1.4,0,2.5-1.1,2.5-4.3c0-2.6-0.8-3.7-2-3.7c-0.9,0-1.6,0.7-1.6,2
						c0,1.3,0.6,1.9,1.7,1.9c0.6,0,1.4-0.4,2-1.3l0.1,1.3c-0.6,0.8-1.6,1.4-2.4,1.4c-1.8,0-3.1-1.1-3.1-3.3c0-2.1,1.5-3.5,3.3-3.5
						c2.1,0,3.8,1.6,3.8,5.2c0,4.1-2,5.8-4.2,5.8C-40.1-4.4-41-4.9-41.6-5.6z"/>
					<path d="M-33.1-5.6l1-1.2C-31.6-6.3-31-6-30.3-6c1.4,0,2.5-1.1,2.5-4.3c0-2.6-0.8-3.7-2-3.7c-0.9,0-1.6,0.7-1.6,2
						c0,1.3,0.6,1.9,1.7,1.9c0.6,0,1.4-0.4,2-1.3l0.1,1.3c-0.6,0.8-1.6,1.4-2.4,1.4c-1.8,0-3.1-1.1-3.1-3.3c0-2.1,1.5-3.5,3.3-3.5
						c2.1,0,3.8,1.6,3.8,5.2c0,4.1-2,5.8-4.2,5.8C-31.5-4.4-32.4-4.9-33.1-5.6z"/>
					<path d="M-24.6-10c0-3.6,1.4-5.5,3.6-5.5c2.2,0,3.6,1.9,3.6,5.5c0,3.6-1.4,5.6-3.6,5.6C-23.2-4.4-24.6-6.4-24.6-10z M-19.3-10
						c0-3-0.7-4-1.8-4s-1.8,1-1.8,4s0.7,4,1.8,4S-19.3-7-19.3-10z"/>
					<path d="M-16.3-5.5l0.9-1.2c0.7,0.6,1.4,0.9,2.3,0.9c0.9,0,1.3-0.4,1.3-1c0-0.7-0.9-1-1.8-1.3c-1.1-0.4-2.3-1-2.3-2.4
						c0-1.4,1.1-2.5,3-2.5c1.1,0,2.1,0.5,2.7,1l-0.9,1.2c-0.6-0.4-1.2-0.7-1.8-0.7c-0.8,0-1.2,0.4-1.2,0.9c0,0.6,0.8,0.9,1.7,1.2
						C-11.3-9-10-8.5-10-6.9c0,1.4-1.1,2.5-3.2,2.5C-14.3-4.4-15.5-4.9-16.3-5.5z"/>
				</g>
			</g>
		</g>
		<g transform="translate(0,379.6875)">
			<line class="st0" x1="-4.3" y1="-4.9" x2="-11.4" y2="-4.9"/>
			<g>
				<g class="st3">
					<path d="M-50.3-0.3c2.9-2.9,4.8-4.7,4.8-6.3c0-1.1-0.6-1.8-1.8-1.8c-0.8,0-1.5,0.5-2.1,1.2l-1.1-1.1c1-1,1.9-1.6,3.4-1.6
						c2,0,3.4,1.3,3.4,3.3c0,1.9-1.7,3.8-3.9,6c0.6-0.1,1.3-0.1,1.8-0.1h2.6v1.6h-7.2V-0.3z"/>
					<path d="M-41.8-4.5c0-3.6,1.4-5.5,3.6-5.5c2.2,0,3.6,1.9,3.6,5.5c0,3.6-1.4,5.6-3.6,5.6C-40.4,1-41.8-1-41.8-4.5z M-36.4-4.5
						c0-3-0.7-4-1.8-4s-1.8,1-1.8,4s0.7,4,1.8,4S-36.4-1.5-36.4-4.5z"/>
					<path d="M-33.2-4.5c0-3.6,1.4-5.5,3.6-5.5c2.2,0,3.6,1.9,3.6,5.5C-26-1-27.4,1-29.6,1C-31.8,1-33.2-1-33.2-4.5z M-27.8-4.5
						c0-3-0.7-4-1.8-4s-1.8,1-1.8,4s0.7,4,1.8,4S-27.8-1.5-27.8-4.5z"/>
					<path d="M-24.6-4.5c0-3.6,1.4-5.5,3.6-5.5c2.2,0,3.6,1.9,3.6,5.5C-17.4-1-18.8,1-21,1C-23.2,1-24.6-1-24.6-4.5z M-19.3-4.5
						c0-3-0.7-4-1.8-4s-1.8,1-1.8,4s0.7,4,1.8,4S-19.3-1.5-19.3-4.5z"/>
					<path d="M-16.3-0.1l0.9-1.2c0.7,0.6,1.4,0.9,2.3,0.9c0.9,0,1.3-0.4,1.3-1c0-0.7-0.9-1-1.8-1.3c-1.1-0.4-2.3-1-2.3-2.4
						c0-1.4,1.1-2.5,3-2.5c1.1,0,2.1,0.5,2.7,1l-0.9,1.2c-0.6-0.4-1.2-0.7-1.8-0.7c-0.8,0-1.2,0.4-1.2,0.9c0,0.6,0.8,0.9,1.7,1.2
						c1.1,0.4,2.4,0.9,2.4,2.5c0,1.4-1.1,2.5-3.2,2.5C-14.3,1-15.5,0.5-16.3-0.1z"/>
				</g>
			</g>
		</g>
		<g transform="translate(0,407.8125)">
			<line class="st0" x1="-4.3" y1="0.5" x2="-11.4" y2="0.5"/>
			<g>
				<g class="st3">
					<path d="M-50.3,5.1c2.9-2.9,4.8-4.7,4.8-6.3c0-1.1-0.6-1.8-1.8-1.8c-0.8,0-1.5,0.5-2.1,1.2L-50.4-3c1-1,1.9-1.6,3.4-1.6
						c2,0,3.4,1.3,3.4,3.3c0,1.9-1.7,3.8-3.9,6c0.6-0.1,1.3-0.1,1.8-0.1h2.6v1.6h-7.2V5.1z"/>
					<path d="M-41.8,0.9c0-3.6,1.4-5.5,3.6-5.5c2.2,0,3.6,1.9,3.6,5.5c0,3.6-1.4,5.6-3.6,5.6C-40.4,6.4-41.8,4.4-41.8,0.9z
						 M-36.4,0.9c0-3-0.7-4-1.8-4s-1.8,1-1.8,4s0.7,4,1.8,4S-36.4,3.9-36.4,0.9z"/>
					<path d="M-32.6,4.6h2.4v-7h-2v-1.2c1.1-0.2,1.8-0.5,2.5-0.9h1.4v9.1h2.1v1.6h-6.4V4.6z"/>
					<path d="M-24.6,0.9c0-3.6,1.4-5.5,3.6-5.5c2.2,0,3.6,1.9,3.6,5.5c0,3.6-1.4,5.6-3.6,5.6C-23.2,6.4-24.6,4.4-24.6,0.9z
						 M-19.3,0.9c0-3-0.7-4-1.8-4s-1.8,1-1.8,4s0.7,4,1.8,4S-19.3,3.9-19.3,0.9z"/>
					<path d="M-16.3,5.3l0.9-1.2C-14.7,4.6-14,5-13.2,5c0.9,0,1.3-0.4,1.3-1c0-0.7-0.9-1-1.8-1.3c-1.1-0.4-2.3-1-2.3-2.4
						c0-1.4,1.1-2.5,3-2.5c1.1,0,2.1,0.5,2.7,1L-11.1,0c-0.6-0.4-1.2-0.7-1.8-0.7c-0.8,0-1.2,0.4-1.2,0.9c0,0.6,0.8,0.9,1.7,1.2
						c1.1,0.4,2.4,0.9,2.4,2.5c0,1.4-1.1,2.5-3.2,2.5C-14.3,6.4-15.5,5.9-16.3,5.3z"/>
				</g>
			</g>
		</g>
		<g transform="translate(0,435.9375)">
			<line class="st0" x1="-4.3" y1="5.9" x2="-11.4" y2="5.9"/>
			<g>
				<g class="st3">
					<path d="M-50.3,10.5c2.9-2.9,4.8-4.7,4.8-6.3c0-1.1-0.6-1.8-1.8-1.8c-0.8,0-1.5,0.5-2.1,1.2l-1.1-1.1c1-1,1.9-1.6,3.4-1.6
						c2,0,3.4,1.3,3.4,3.3c0,1.9-1.7,3.8-3.9,6C-47,10-46.3,10-45.8,10h2.6v1.6h-7.2V10.5z"/>
					<path d="M-41.8,6.3c0-3.6,1.4-5.5,3.6-5.5c2.2,0,3.6,1.9,3.6,5.5c0,3.6-1.4,5.6-3.6,5.6C-40.4,11.8-41.8,9.9-41.8,6.3z
						 M-36.4,6.3c0-3-0.7-4-1.8-4s-1.8,1-1.8,4s0.7,4,1.8,4S-36.4,9.3-36.4,6.3z"/>
					<path d="M-33.2,10.5c2.9-2.9,4.8-4.7,4.8-6.3c0-1.1-0.6-1.8-1.8-1.8c-0.8,0-1.5,0.5-2.1,1.2l-1.1-1.1c1-1,1.9-1.6,3.4-1.6
						c2,0,3.4,1.3,3.4,3.3c0,1.9-1.7,3.8-3.9,6c0.6-0.1,1.3-0.1,1.8-0.1h2.6v1.6h-7.2V10.5z"/>
					<path d="M-24.6,6.3c0-3.6,1.4-5.5,3.6-5.5c2.2,0,3.6,1.9,3.6,5.5c0,3.6-1.4,5.6-3.6,5.6C-23.2,11.8-24.6,9.9-24.6,6.3z
						 M-19.3,6.3c0-3-0.7-4-1.8-4s-1.8,1-1.8,4s0.7,4,1.8,4S-19.3,9.3-19.3,6.3z"/>
					<path d="M-16.3,10.7l0.9-1.2c0.7,0.6,1.4,0.9,2.3,0.9c0.9,0,1.3-0.4,1.3-1c0-0.7-0.9-1-1.8-1.3c-1.1-0.4-2.3-1-2.3-2.4
						c0-1.4,1.1-2.5,3-2.5c1.1,0,2.1,0.5,2.7,1l-0.9,1.2c-0.6-0.4-1.2-0.7-1.8-0.7c-0.8,0-1.2,0.4-1.2,0.9c0,0.6,0.8,0.9,1.7,1.2
						c1.1,0.4,2.4,0.9,2.4,2.5c0,1.4-1.1,2.5-3.2,2.5C-14.3,11.8-15.5,11.3-16.3,10.7z"/>
				</g>
			</g>
		</g>
	</g>
	<rect x="167" y="-74.4" class="st4" width="26.4" height="26.4"/>
	<rect x="200" y="-74.9" class="st5" width="27.4" height="27.4"/>
	<rect x="231.4" y="-77" class="st6" width="31.7" height="31.7"/>
	<rect x="266.2" y="-75.7" class="st7" width="29" height="29"/>
	<rect x="299.8" y="-75.7" class="st8" width="29" height="29"/>
	<rect x="-2.2" y="-42.4" class="st9" width="29.5" height="29.5"/>
	<rect x="32.3" y="-41.3" class="st10" width="27.4" height="27.4"/>
	<rect x="64.3" y="-42.9" class="st11" width="30.6" height="30.6"/>
	<rect x="99.1" y="-41.6" class="st12" width="27.9" height="27.9"/>
	<rect x="132" y="-42.3" class="st13" width="29.3" height="29.3"/>
	<rect x="166.5" y="-41.3" class="st14" width="27.4" height="27.4"/>
	<rect x="200.5" y="-40.9" class="st15" width="26.5" height="26.5"/>
	<rect x="234.5" y="-40.4" class="st16" width="25.4" height="25.4"/>
	<rect x="267.1" y="-41.3" class="st14" width="27.4" height="27.4"/>
	<rect x="300.7" y="-41.2" class="st17" width="27.1" height="27.1"/>
	<rect x="-1.3" y="-7.9" class="st18" width="27.7" height="27.7"/>
	<rect x="31.2" y="-8.9" class="st19" width="29.6" height="29.6"/>
	<rect x="65.6" y="-8" class="st20" width="27.8" height="27.8"/>
	<rect x="99.1" y="-8.1" class="st21" width="28" height="28"/>
	<rect x="131.8" y="-8.9" class="st22" width="29.6" height="29.6"/>
	<rect x="165.5" y="-8.8" class="st23" width="29.4" height="29.4"/>
	<rect x="199.5" y="-8.3" class="st24" width="28.3" height="28.3"/>
	<rect x="232.3" y="-9" class="st25" width="29.8" height="29.8"/>
	<rect x="266.2" y="-8.7" class="st26" width="29.1" height="29.1"/>
	<rect x="301.1" y="-7.3" class="st27" width="26.4" height="26.4"/>
	<rect x="-2.6" y="24.3" class="st28" width="30.2" height="30.2"/>
	<rect x="31.8" y="25.2" class="st29" width="28.4" height="28.4"/>
	<rect x="66.3" y="26.2" class="st27" width="26.4" height="26.4"/>
	<rect x="97.9" y="24.3" class="st30" width="30.3" height="30.3"/>
	<rect x="133" y="25.9" class="st31" width="27.1" height="27.1"/>
	<rect x="165.2" y="24.5" class="st32" width="29.9" height="29.9"/>
	<rect x="199.3" y="25" class="st33" width="28.8" height="28.8"/>
	<rect x="233.2" y="25.4" class="st34" width="28" height="28"/>
	<rect x="266.9" y="25.6" class="st35" width="27.7" height="27.7"/>
	<rect x="299.5" y="24.6" class="st22" width="29.6" height="29.6"/>
	<rect x="-2.3" y="58.2" class="st36" width="29.5" height="29.5"/>
	<rect x="31.5" y="58.4" class="st8" width="29" height="29"/>
	<rect x="63.9" y="57.3" class="st37" width="31.4" height="31.4"/>
	<rect x="99.7" y="59.6" class="st38" width="26.8" height="26.8"/>
	<rect x="132.2" y="58.5" class="st39" width="28.8" height="28.8"/>
	<rect x="165.9" y="58.7" class="st40" width="28.6" height="28.6"/>
	<rect x="197.5" y="56.8" class="st41" width="32.3" height="32.3"/>
	<rect x="232.5" y="58.2" class="st42" width="29.5" height="29.5"/>
	<rect x="266.2" y="58.5" class="st43" width="29" height="29"/>
	<rect x="300" y="58.7" class="st44" width="28.5" height="28.5"/>
	<rect x="-2.4" y="91.6" class="st45" width="29.7" height="29.7"/>
	<rect x="31.7" y="92.2" class="st46" width="28.6" height="28.6"/>
	<rect x="65" y="92" class="st47" width="29.1" height="29.1"/>
	<rect x="97.3" y="90.7" class="st48" width="31.5" height="31.5"/>
	<rect x="132.4" y="92.3" class="st49" width="28.4" height="28.4"/>
	<rect x="165.2" y="91.5" class="st50" width="29.9" height="29.9"/>
	<rect x="198.6" y="91.4" class="st51" width="30.1" height="30.1"/>
	<rect x="230.5" y="89.7" class="st52" width="33.5" height="33.5"/>
	<rect x="265.8" y="91.5" class="st53" width="29.9" height="29.9"/>
	<rect x="300.6" y="92.8" class="st5" width="27.4" height="27.4"/>
	<rect x="-2.5" y="125" class="st54" width="30.1" height="30.1"/>
	<rect x="31.1" y="125.1" class="st25" width="29.8" height="29.8"/>
	<rect x="65.3" y="125.7" class="st55" width="28.6" height="28.6"/>
	<rect x="100" y="126.9" class="st56" width="26.1" height="26.1"/>
	<rect x="131.5" y="124.9" class="st57" width="30.2" height="30.2"/>
	<rect x="164.8" y="124.6" class="st58" width="30.7" height="30.7"/>
	<rect x="199.1" y="125.5" class="st47" width="29.1" height="29.1"/>
	<rect x="232.7" y="125.5" class="st47" width="29.1" height="29.1"/>
	<rect x="265.9" y="125.2" class="st19" width="29.6" height="29.6"/>
	<rect x="300" y="125.7" class="st59" width="28.6" height="28.6"/>
	<rect x="-1.5" y="159.6" class="st21" width="28" height="28"/>
	<rect x="32.4" y="159.9" class="st60" width="27.2" height="27.2"/>
	<rect x="65.4" y="159.4" class="st29" width="28.4" height="28.4"/>
	<rect x="99" y="159.5" class="st61" width="28.2" height="28.2"/>
	<rect x="131.8" y="158.8" class="st62" width="29.6" height="29.6"/>
	<rect x="164.8" y="158.2" class="st63" width="30.7" height="30.7"/>
	<rect x="198.3" y="158.2" class="st64" width="30.7" height="30.7"/>
	<rect x="234.7" y="161.1" class="st65" width="25" height="25"/>
	<rect x="266.2" y="159" class="st7" width="29" height="29"/>
	<rect x="299.7" y="159" class="st66" width="29.2" height="29.2"/>
	<rect x="-4.1" y="190.5" class="st67" width="33.2" height="33.2"/>
	<rect x="29.9" y="191" class="st68" width="32.1" height="32.1"/>
	<rect x="64.1" y="191.6" class="st69" width="30.9" height="30.9"/>
	<rect x="99.2" y="193.2" class="st35" width="27.7" height="27.7"/>
	<rect x="130.4" y="190.8" class="st70" width="32.5" height="32.5"/>
	<rect x="166.1" y="193" class="st71" width="28.2" height="28.2"/>
	<rect x="199.9" y="193.3" class="st72" width="27.6" height="27.6"/>
	<rect x="233" y="192.8" class="st44" width="28.5" height="28.5"/>
	<rect x="264.5" y="190.8" class="st73" width="32.5" height="32.5"/>
	<rect x="300.5" y="193.3" class="st74" width="27.5" height="27.5"/>
	<rect x="-3.5" y="224.7" class="st75" width="31.9" height="31.9"/>
	<rect x="30.5" y="225.1" class="st76" width="31" height="31"/>
	<rect x="64.9" y="226" class="st13" width="29.3" height="29.3"/>
	<rect x="98" y="225.6" class="st51" width="30.1" height="30.1"/>
	<rect x="132.8" y="226.8" class="st18" width="27.7" height="27.7"/>
	<rect x="164.9" y="225.3" class="st77" width="30.5" height="30.5"/>
	<rect x="197.4" y="224.4" class="st78" width="32.5" height="32.5"/>
	<rect x="231" y="224.4" class="st79" width="32.5" height="32.5"/>
	<rect x="265" y="224.9" class="st80" width="31.4" height="31.4"/>
	<rect x="299.9" y="226.2" class="st81" width="28.7" height="28.7"/>
	<rect x="-3.2" y="258.5" class="st37" width="31.4" height="31.4"/>
	<rect x="32.3" y="260.5" class="st82" width="27.3" height="27.3"/>
	<rect x="66" y="260.6" class="st17" width="27.1" height="27.1"/>
	<rect x="99.1" y="260.2" class="st83" width="27.9" height="27.9"/>
	<rect x="131.1" y="258.6" class="st84" width="31.1" height="31.1"/>
	<rect x="167.3" y="261.3" class="st85" width="25.7" height="25.7"/>
	<rect x="200.9" y="261.4" class="st86" width="25.5" height="25.5"/>
	<rect x="232.7" y="259.6" class="st8" width="29" height="29"/>
	<rect x="266.6" y="260" class="st87" width="28.3" height="28.3"/>
	<rect x="298.7" y="258.6" class="st88" width="31.1" height="31.1"/>
	<rect x="-3.8" y="291.4" class="st70" width="32.5" height="32.5"/>
	<rect x="29.8" y="291.5" class="st89" width="32.4" height="32.4"/>
	<rect x="64.2" y="292.4" class="st90" width="30.6" height="30.6"/>
	<rect x="97.4" y="292" class="st91" width="31.3" height="31.3"/>
	<rect x="131.3" y="292.4" class="st77" width="30.5" height="30.5"/>
	<rect x="164.5" y="292.1" class="st92" width="31.2" height="31.2"/>
	<rect x="198.9" y="292.9" class="st93" width="29.5" height="29.5"/>
	<rect x="232" y="292.5" class="st94" width="30.4" height="30.4"/>
	<rect x="264.7" y="291.6" class="st68" width="32.2" height="32.2"/>
	<rect x="300.7" y="294.1" class="st31" width="27.1" height="27.1"/>
	<rect x="-3.2" y="325.5" class="st95" width="31.5" height="31.5"/>
	<rect x="31.9" y="327.1" class="st71" width="28.2" height="28.2"/>
	<rect x="64.4" y="326.1" class="st96" width="30.3" height="30.3"/>
	<rect x="98" y="326.1" class="st97" width="30.2" height="30.2"/>
	<rect x="130.3" y="324.9" class="st98" width="32.6" height="32.6"/>
	<rect x="165.8" y="326.9" class="st99" width="28.6" height="28.6"/>
	<rect x="200.7" y="328.3" class="st100" width="25.9" height="25.9"/>
	<rect x="233.8" y="327.8" class="st38" width="26.8" height="26.8"/>
	<rect x="264.6" y="325.1" class="st101" width="32.3" height="32.3"/>
	<rect x="297.5" y="324.4" class="st102" width="33.5" height="33.5"/>
	<rect x="-2.7" y="359.5" class="st103" width="30.4" height="30.4"/>
	<rect x="30.6" y="359.4" class="st104" width="30.8" height="30.8"/>
	<rect x="63.6" y="358.8" class="st105" width="32" height="32"/>
	<rect x="99.2" y="360.8" class="st106" width="27.8" height="27.8"/>
	<rect x="130.9" y="359.1" class="st37" width="31.4" height="31.4"/>
	<rect x="166.1" y="360.7" class="st107" width="28.1" height="28.1"/>
	<rect x="197.6" y="358.7" class="st108" width="32.1" height="32.1"/>
	<rect x="231.1" y="358.6" class="st101" width="32.3" height="32.3"/>
	<rect x="265.3" y="359.3" class="st109" width="30.9" height="30.9"/>
	<rect x="299.7" y="360.2" class="st110" width="29.1" height="29.1"/>
	<rect x="-2.5" y="393.3" class="st111" width="30" height="30"/>
	<rect x="30.2" y="392.4" class="st6" width="31.7" height="31.7"/>
	<rect x="63.6" y="392.4" class="st112" width="31.8" height="31.8"/>
	<rect x="98.6" y="393.8" class="st113" width="28.9" height="28.9"/>
	<rect x="130.3" y="392" class="st73" width="32.5" height="32.5"/>
	<rect x="163.4" y="391.5" class="st52" width="33.5" height="33.5"/>
	<rect x="199.5" y="394.1" class="st24" width="28.3" height="28.3"/>
	<rect x="230.8" y="391.9" class="st114" width="32.8" height="32.8"/>
	<rect x="266.9" y="394.4" class="st115" width="27.8" height="27.8"/>
	<rect x="297.9" y="391.9" class="st114" width="32.8" height="32.8"/>
	<rect x="-2.2" y="427.2" class="st116" width="29.3" height="29.3"/>
	<g id="labels">
		<g transform="translate(154.6875,14.0625)">
		</g>
		<g transform="translate(182.8125,14.0625)">
		</g>
		<g transform="translate(210.9375,14.0625)">
		</g>
		<g transform="translate(239.0625,14.0625)">
		</g>
		<g transform="translate(267.1875,14.0625)">
		</g>
		<g transform="translate(14.0625,42.1875)">
		</g>
		<g transform="translate(42.1875,42.1875)">
		</g>
		<g transform="translate(70.3125,42.1875)">
		</g>
		<g transform="translate(98.4375,42.1875)">
		</g>
		<g transform="translate(126.5625,42.1875)">
		</g>
		<g transform="translate(154.6875,42.1875)">
		</g>
		<g transform="translate(182.8125,42.1875)">
		</g>
		<g transform="translate(210.9375,42.1875)">
		</g>
		<g transform="translate(239.0625,42.1875)">
		</g>
		<g transform="translate(267.1875,42.1875)">
		</g>
		<g transform="translate(14.0625,70.3125)">
		</g>
		<g transform="translate(42.1875,70.3125)">
		</g>
		<g transform="translate(70.3125,70.3125)">
		</g>
		<g transform="translate(98.4375,70.3125)">
		</g>
		<g transform="translate(126.5625,70.3125)">
		</g>
		<g transform="translate(154.6875,70.3125)">
		</g>
		<g transform="translate(182.8125,70.3125)">
		</g>
		<g transform="translate(210.9375,70.3125)">
		</g>
		<g transform="translate(239.0625,70.3125)">
		</g>
		<g transform="translate(267.1875,70.3125)">
		</g>
		<g transform="translate(14.0625,98.4375)">
		</g>
		<g transform="translate(42.1875,98.4375)">
		</g>
		<g transform="translate(70.3125,98.4375)">
		</g>
		<g transform="translate(98.4375,98.4375)">
		</g>
		<g transform="translate(126.5625,98.4375)">
		</g>
		<g transform="translate(154.6875,98.4375)">
		</g>
		<g transform="translate(182.8125,98.4375)">
		</g>
		<g transform="translate(210.9375,98.4375)">
		</g>
		<g transform="translate(239.0625,98.4375)">
		</g>
		<g transform="translate(267.1875,98.4375)">
		</g>
		<g transform="translate(14.0625,126.5625)">
		</g>
		<g transform="translate(42.1875,126.5625)">
		</g>
		<g transform="translate(70.3125,126.5625)">
		</g>
		<g transform="translate(98.4375,126.5625)">
		</g>
		<g transform="translate(126.5625,126.5625)">
		</g>
		<g transform="translate(154.6875,126.5625)">
		</g>
		<g transform="translate(182.8125,126.5625)">
		</g>
		<g transform="translate(210.9375,126.5625)">
		</g>
		<g transform="translate(239.0625,126.5625)">
		</g>
		<g transform="translate(267.1875,126.5625)">
		</g>
		<g transform="translate(14.0625,154.6875)">
		</g>
		<g transform="translate(42.1875,154.6875)">
		</g>
		<g transform="translate(70.3125,154.6875)">
		</g>
		<g transform="translate(98.4375,154.6875)">
		</g>
		<g transform="translate(126.5625,154.6875)">
		</g>
		<g transform="translate(154.6875,154.6875)">
		</g>
		<g transform="translate(182.8125,154.6875)">
		</g>
		<g transform="translate(210.9375,154.6875)">
		</g>
		<g transform="translate(239.0625,154.6875)">
		</g>
		<g transform="translate(267.1875,154.6875)">
		</g>
		<g transform="translate(14.0625,182.8125)">
		</g>
		<g transform="translate(42.1875,182.8125)">
		</g>
		<g transform="translate(70.3125,182.8125)">
		</g>
		<g transform="translate(98.4375,182.8125)">
		</g>
		<g transform="translate(126.5625,182.8125)">
		</g>
		<g transform="translate(154.6875,182.8125)">
		</g>
		<g transform="translate(182.8125,182.8125)">
		</g>
		<g transform="translate(210.9375,182.8125)">
		</g>
		<g transform="translate(239.0625,182.8125)">
		</g>
		<g transform="translate(267.1875,182.8125)">
		</g>
		<g transform="translate(14.0625,210.9375)">
		</g>
		<g transform="translate(42.1875,210.9375)">
		</g>
		<g transform="translate(70.3125,210.9375)">
		</g>
		<g transform="translate(98.4375,210.9375)">
		</g>
		<g transform="translate(126.5625,210.9375)">
		</g>
		<g transform="translate(154.6875,210.9375)">
		</g>
		<g transform="translate(182.8125,210.9375)">
		</g>
		<g transform="translate(210.9375,210.9375)">
		</g>
		<g transform="translate(239.0625,210.9375)">
		</g>
		<g transform="translate(267.1875,210.9375)">
		</g>
		<g transform="translate(14.0625,239.0625)">
		</g>
		<g transform="translate(42.1875,239.0625)">
		</g>
		<g transform="translate(70.3125,239.0625)">
		</g>
		<g transform="translate(98.4375,239.0625)">
		</g>
		<g transform="translate(126.5625,239.0625)">
		</g>
		<g transform="translate(154.6875,239.0625)">
		</g>
		<g transform="translate(182.8125,239.0625)">
		</g>
		<g transform="translate(210.9375,239.0625)">
		</g>
		<g transform="translate(239.0625,239.0625)">
		</g>
		<g transform="translate(267.1875,239.0625)">
		</g>
		<g transform="translate(14.0625,267.1875)">
		</g>
		<g transform="translate(42.1875,267.1875)">
		</g>
		<g transform="translate(70.3125,267.1875)">
		</g>
		<g transform="translate(98.4375,267.1875)">
		</g>
		<g transform="translate(126.5625,267.1875)">
		</g>
		<g transform="translate(154.6875,267.1875)">
		</g>
		<g transform="translate(182.8125,267.1875)">
		</g>
		<g transform="translate(210.9375,267.1875)">
		</g>
		<g transform="translate(239.0625,267.1875)">
		</g>
		<g transform="translate(267.1875,267.1875)">
		</g>
		<g transform="translate(14.0625,295.3125)">
		</g>
		<g transform="translate(42.1875,295.3125)">
		</g>
		<g transform="translate(70.3125,295.3125)">
		</g>
		<g transform="translate(98.4375,295.3125)">
		</g>
		<g transform="translate(126.5625,295.3125)">
		</g>
		<g transform="translate(154.6875,295.3125)">
		</g>
		<g transform="translate(182.8125,295.3125)">
		</g>
		<g transform="translate(210.9375,295.3125)">
		</g>
		<g transform="translate(239.0625,295.3125)">
		</g>
		<g transform="translate(267.1875,295.3125)">
		</g>
		<g transform="translate(14.0625,323.4375)">
		</g>
		<g transform="translate(42.1875,323.4375)">
		</g>
		<g transform="translate(70.3125,323.4375)">
		</g>
		<g transform="translate(98.4375,323.4375)">
		</g>
		<g transform="translate(126.5625,323.4375)">
		</g>
		<g transform="translate(154.6875,323.4375)">
		</g>
		<g transform="translate(182.8125,323.4375)">
		</g>
		<g transform="translate(210.9375,323.4375)">
		</g>
		<g transform="translate(239.0625,323.4375)">
		</g>
		<g transform="translate(267.1875,323.4375)">
		</g>
		<g transform="translate(14.0625,351.5625)">
		</g>
		<g transform="translate(42.1875,351.5625)">
		</g>
		<g transform="translate(70.3125,351.5625)">
		</g>
		<g transform="translate(98.4375,351.5625)">
		</g>
		<g transform="translate(126.5625,351.5625)">
		</g>
		<g transform="translate(154.6875,351.5625)">
		</g>
		<g transform="translate(182.8125,351.5625)">
		</g>
		<g transform="translate(210.9375,351.5625)">
		</g>
		<g transform="translate(239.0625,351.5625)">
		</g>
		<g transform="translate(267.1875,351.5625)">
		</g>
		<g transform="translate(14.0625,379.6875)">
		</g>
		<g transform="translate(42.1875,379.6875)">
		</g>
		<g transform="translate(70.3125,379.6875)">
		</g>
		<g transform="translate(98.4375,379.6875)">
		</g>
		<g transform="translate(126.5625,379.6875)">
		</g>
		<g transform="translate(154.6875,379.6875)">
		</g>
		<g transform="translate(182.8125,379.6875)">
		</g>
		<g transform="translate(210.9375,379.6875)">
		</g>
		<g transform="translate(239.0625,379.6875)">
		</g>
		<g transform="translate(267.1875,379.6875)">
		</g>
		<g transform="translate(14.0625,407.8125)">
		</g>
		<g transform="translate(42.1875,407.8125)">
		</g>
		<g transform="translate(70.3125,407.8125)">
		</g>
		<g transform="translate(98.4375,407.8125)">
		</g>
		<g transform="translate(126.5625,407.8125)">
		</g>
		<g transform="translate(154.6875,407.8125)">
		</g>
		<g transform="translate(182.8125,407.8125)">
		</g>
		<g transform="translate(210.9375,407.8125)">
		</g>
		<g transform="translate(239.0625,407.8125)">
		</g>
		<g transform="translate(267.1875,407.8125)">
		</g>
		<g transform="translate(14.0625,435.9375)">
		</g>
	</g>
</g>
<g id="legend" transform="translate(805,100)">
	<g transform="translate(5,0)">
		<g transform="translate(0,0)">
			<g transform="translate(0,15.5)">
				<g transform="translate(0, 0)">
					<rect x="-302.1" y="-51" class="st117" width="21" height="21"/>
					<text transform="matrix(6.123234e-17 1 -1 6.123234e-17 -296.5625 -17.9986)" class="st118 st119">459.0</text>
				</g>
				<g transform="translate(0, 26)">
					<rect x="-335.1" y="-77" class="st117" width="28" height="28"/>
					<text transform="matrix(6.123234e-17 1 -1 6.123234e-17 -326.0625 -43.9986)" class="st118 st119">829.0</text>
				</g>
			</g>
			<text transform="matrix(6.123234e-17 1 -1 6.123234e-17 -265.5625 -35.4986)" class="st120 st121">annual</text>
		</g>
		<g transform="translate(0,102)">
			<g transform="translate(0,15.5)">
				<g transform="translate(0,0)">
					<rect x="-393.1" y="-153" class="st65" width="10" height="1"/>
					<text transform="matrix(6.123234e-17 1 -1 6.123234e-17 -406.0625 -152.9986)" class="st118 st119">459.0</text>
				</g>
				<g transform="translate(1,0)">
					<rect x="-394.1" y="-152" class="st122" width="10" height="1"/>
				</g>
				<g transform="translate(2,0)">
					<rect x="-395.1" y="-151" class="st123" width="10" height="1"/>
				</g>
				<g transform="translate(3,0)">
					<rect x="-396.1" y="-150" class="st124" width="10" height="1"/>
				</g>
				<g transform="translate(4,0)">
					<rect x="-397.1" y="-149" class="st125" width="10" height="1"/>
				</g>
				<g transform="translate(5,0)">
					<rect x="-398.1" y="-148" class="st126" width="10" height="1"/>
				</g>
				<g transform="translate(6,0)">
					<rect x="-399.1" y="-147" class="st127" width="10" height="1"/>
				</g>
				<g transform="translate(7,0)">
					<rect x="-400.1" y="-146" class="st128" width="10" height="1"/>
				</g>
				<g transform="translate(8,0)">
					<rect x="-401.1" y="-145" class="st129" width="10" height="1"/>
				</g>
				<g transform="translate(9,0)">
					<rect x="-402.1" y="-144" class="st16" width="10" height="1"/>
				</g>
				<g transform="translate(10,0)">
					<rect x="-403.1" y="-143" class="st86" width="10" height="1"/>
				</g>
				<g transform="translate(11,0)">
					<rect x="-404.1" y="-142" class="st130" width="10" height="1"/>
				</g>
				<g transform="translate(12,0)">
					<rect x="-405.1" y="-141" class="st131" width="10" height="1"/>
				</g>
				<g transform="translate(13,0)">
					<rect x="-406.1" y="-140" class="st132" width="10" height="1"/>
				</g>
				<g transform="translate(14,0)">
					<rect x="-407.1" y="-139" class="st85" width="10" height="1"/>
				</g>
				<g transform="translate(15,0)">
					<rect x="-408.1" y="-138" class="st133" width="10" height="1"/>
				</g>
				<g transform="translate(16,0)">
					<rect x="-409.1" y="-137" class="st134" width="10" height="1"/>
				</g>
				<g transform="translate(17,0)">
					<rect x="-410.1" y="-136" class="st135" width="10" height="1"/>
				</g>
				<g transform="translate(18,0)">
					<rect x="-411.1" y="-135" class="st100" width="10" height="1"/>
				</g>
				<g transform="translate(19,0)">
					<rect x="-412.1" y="-134" class="st136" width="10" height="1"/>
				</g>
				<g transform="translate(20,0)">
					<rect x="-413.1" y="-133" class="st137" width="10" height="1"/>
				</g>
				<g transform="translate(21,0)">
					<rect x="-414.1" y="-132" class="st138" width="10" height="1"/>
				</g>
				<g transform="translate(22,0)">
					<rect x="-415.1" y="-131" class="st139" width="10" height="1"/>
				</g>
				<g transform="translate(23,0)">
					<rect x="-416.1" y="-130" class="st56" width="10" height="1"/>
				</g>
				<g transform="translate(24,0)">
					<rect x="-417.1" y="-129" class="st140" width="10" height="1"/>
				</g>
				<g transform="translate(25,0)">
					<rect x="-418.1" y="-128" class="st141" width="10" height="1"/>
				</g>
				<g transform="translate(26,0)">
					<rect x="-419.1" y="-127" class="st142" width="10" height="1"/>
				</g>
				<g transform="translate(27,0)">
					<rect x="-420.1" y="-126" class="st4" width="10" height="1"/>
				</g>
				<g transform="translate(28,0)">
					<rect x="-421.1" y="-125" class="st143" width="10" height="1"/>
				</g>
				<g transform="translate(29,0)">
					<rect x="-422.1" y="-124" class="st144" width="10" height="1"/>
				</g>
				<g transform="translate(30,0)">
					<rect x="-423.1" y="-123" class="st15" width="10" height="1"/>
				</g>
				<g transform="translate(31,0)">
					<rect x="-424.1" y="-122" class="st145" width="10" height="1"/>
				</g>
				<g transform="translate(32,0)">
					<rect x="-425.1" y="-121" class="st146" width="10" height="1"/>
				</g>
				<g transform="translate(33,0)">
					<rect x="-426.1" y="-120" class="st147" width="10" height="1"/>
				</g>
				<g transform="translate(34,0)">
					<rect x="-427.1" y="-119" class="st148" width="10" height="1"/>
				</g>
				<g transform="translate(35,0)">
					<rect x="-428.1" y="-118" class="st38" width="10" height="1"/>
				</g>
				<g transform="translate(36,0)">
					<rect x="-429.1" y="-117" class="st149" width="10" height="1"/>
				</g>
				<g transform="translate(37,0)">
					<rect x="-430.1" y="-116" class="st150" width="10" height="1"/>
				</g>
				<g transform="translate(38,0)">
					<rect x="-431.1" y="-115" class="st151" width="10" height="1"/>
				</g>
				<g transform="translate(39,0)">
					<rect x="-432.1" y="-114" class="st152" width="10" height="1"/>
				</g>
				<g transform="translate(40,0)">
					<rect x="-433.1" y="-113" class="st153" width="10" height="1"/>
				</g>
				<g transform="translate(41,0)">
					<rect x="-434.1" y="-112" class="st154" width="10" height="1"/>
				</g>
				<g transform="translate(42,0)">
					<rect x="-435.1" y="-111" class="st155" width="10" height="1"/>
				</g>
				<g transform="translate(43,0)">
					<rect x="-436.1" y="-110" class="st31" width="10" height="1"/>
				</g>
				<g transform="translate(44,0)">
					<rect x="-437.1" y="-109" class="st156" width="10" height="1"/>
				</g>
				<g transform="translate(45,0)">
					<rect x="-438.1" y="-108" class="st157" width="10" height="1"/>
				</g>
				<g transform="translate(46,0)">
					<rect x="-439.1" y="-107" class="st158" width="10" height="1"/>
				</g>
				<g transform="translate(47,0)">
					<rect x="-440.1" y="-106" class="st82" width="10" height="1"/>
				</g>
				<g transform="translate(48,0)">
					<rect x="-441.1" y="-105" class="st5" width="10" height="1"/>
				</g>
				<g transform="translate(49,0)">
					<rect x="-442.1" y="-104" class="st159" width="10" height="1"/>
				</g>
				<g transform="translate(50,0)">
					<rect x="-443.1" y="-103" class="st160" width="10" height="1"/>
				</g>
				<g transform="translate(51,0)">
					<rect x="-444.1" y="-102" class="st74" width="10" height="1"/>
				</g>
				<g transform="translate(52,0)">
					<rect x="-445.1" y="-101" class="st161" width="10" height="1"/>
				</g>
				<g transform="translate(53,0)">
					<rect x="-446.1" y="-100" class="st162" width="10" height="1"/>
				</g>
				<g transform="translate(54,0)">
					<rect x="-447.1" y="-99" class="st18" width="10" height="1"/>
				</g>
				<g transform="translate(55,0)">
					<rect x="-448.1" y="-98" class="st35" width="10" height="1"/>
				</g>
				<g transform="translate(56,0)">
					<rect x="-449.1" y="-97" class="st163" width="10" height="1"/>
				</g>
				<g transform="translate(57,0)">
					<rect x="-450.1" y="-96" class="st106" width="10" height="1"/>
				</g>
				<g transform="translate(58,0)">
					<rect x="-451.1" y="-95" class="st164" width="10" height="1"/>
				</g>
				<g transform="translate(59,0)">
					<rect x="-452.1" y="-94" class="st83" width="10" height="1"/>
				</g>
				<g transform="translate(60,0)">
					<rect x="-453.1" y="-93" class="st165" width="10" height="1"/>
				</g>
				<g transform="translate(61,0)">
					<rect x="-454.1" y="-92" class="st166" width="10" height="1"/>
				</g>
				<g transform="translate(62,0)">
					<rect x="-455.1" y="-91" class="st167" width="10" height="1"/>
				</g>
				<g transform="translate(63,0)">
					<rect x="-456.1" y="-90" class="st168" width="10" height="1"/>
				</g>
				<g transform="translate(64,0)">
					<rect x="-457.1" y="-89" class="st107" width="10" height="1"/>
				</g>
				<g transform="translate(65,0)">
					<rect x="-458.1" y="-88" class="st169" width="10" height="1"/>
				</g>
				<g transform="translate(66,0)">
					<rect x="-459.1" y="-87" class="st170" width="10" height="1"/>
				</g>
				<g transform="translate(67,0)">
					<rect x="-460.1" y="-86" class="st171" width="10" height="1"/>
				</g>
				<g transform="translate(68,0)">
					<rect x="-461.1" y="-85" class="st172" width="10" height="1"/>
				</g>
				<g transform="translate(69,0)">
					<rect x="-462.1" y="-84" class="st173" width="10" height="1"/>
				</g>
				<g transform="translate(70,0)">
					<rect x="-463.1" y="-83" class="st174" width="10" height="1"/>
				</g>
				<g transform="translate(71,0)">
					<rect x="-464.1" y="-82" class="st175" width="10" height="1"/>
				</g>
				<g transform="translate(72,0)">
					<rect x="-465.1" y="-81" class="st176" width="10" height="1"/>
				</g>
				<g transform="translate(73,0)">
					<rect x="-466.1" y="-80" class="st55" width="10" height="1"/>
				</g>
				<g transform="translate(74,0)">
					<rect x="-467.1" y="-79" class="st46" width="10" height="1"/>
				</g>
				<g transform="translate(75,0)">
					<rect x="-468.1" y="-78" class="st177" width="10" height="1"/>
				</g>
				<g transform="translate(76,0)">
					<rect x="-469.1" y="-77" class="st178" width="10" height="1"/>
				</g>
				<g transform="translate(77,0)">
					<rect x="-470.1" y="-76" class="st179" width="10" height="1"/>
				</g>
				<g transform="translate(78,0)">
					<rect x="-471.1" y="-75" class="st180" width="10" height="1"/>
				</g>
				<g transform="translate(79,0)">
					<rect x="-472.1" y="-74" class="st181" width="10" height="1"/>
				</g>
				<g transform="translate(80,0)">
					<rect x="-473.1" y="-73" class="st182" width="10" height="1"/>
				</g>
				<g transform="translate(81,0)">
					<rect x="-474.1" y="-72" class="st183" width="10" height="1"/>
				</g>
				<g transform="translate(82,0)">
					<rect x="-475.1" y="-71" class="st184" width="10" height="1"/>
				</g>
				<g transform="translate(83,0)">
					<rect x="-476.1" y="-70" class="st185" width="10" height="1"/>
				</g>
				<g transform="translate(84,0)">
					<rect x="-477.1" y="-69" class="st186" width="10" height="1"/>
				</g>
				<g transform="translate(85,0)">
					<rect x="-478.1" y="-68" class="st110" width="10" height="1"/>
				</g>
				<g transform="translate(86,0)">
					<rect x="-479.1" y="-67" class="st187" width="10" height="1"/>
				</g>
				<g transform="translate(87,0)">
					<rect x="-480.1" y="-66" class="st188" width="10" height="1"/>
				</g>
				<g transform="translate(88,0)">
					<rect x="-481.1" y="-65" class="st13" width="10" height="1"/>
				</g>
				<g transform="translate(89,0)">
					<rect x="-482.1" y="-64" class="st189" width="10" height="1"/>
				</g>
				<g transform="translate(90,0)">
					<rect x="-483.1" y="-63" class="st190" width="10" height="1"/>
				</g>
				<g transform="translate(91,0)">
					<rect x="-484.1" y="-62" class="st23" width="10" height="1"/>
				</g>
				<g transform="translate(92,0)">
					<rect x="-485.1" y="-61" class="st191" width="10" height="1"/>
				</g>
				<g transform="translate(93,0)">
					<rect x="-486.1" y="-60" class="st36" width="10" height="1"/>
				</g>
				<g transform="translate(94,0)">
					<rect x="-487.1" y="-59" class="st93" width="10" height="1"/>
				</g>
				<g transform="translate(95,0)">
					<rect x="-488.1" y="-58" class="st192" width="10" height="1"/>
				</g>
				<g transform="translate(96,0)">
					<rect x="-489.1" y="-57" class="st193" width="10" height="1"/>
				</g>
				<g transform="translate(97,0)">
					<rect x="-490.1" y="-56" class="st194" width="10" height="1"/>
				</g>
				<g transform="translate(98,0)">
					<rect x="-491.1" y="-55" class="st195" width="10" height="1"/>
				</g>
				<g transform="translate(99,0)">
					<rect x="-492.1" y="-54" class="st196" width="10" height="1"/>
				</g>
				<g transform="translate(100,0)">
					<rect x="-493.1" y="-53" class="st25" width="10" height="1"/>
				</g>
				<g transform="translate(101,0)">
					<rect x="-494.1" y="-52" class="st197" width="10" height="1"/>
				</g>
				<g transform="translate(102,0)">
					<rect x="-495.1" y="-51" class="st198" width="10" height="1"/>
				</g>
				<g transform="translate(103,0)">
					<rect x="-496.1" y="-50" class="st53" width="10" height="1"/>
				</g>
				<g transform="translate(104,0)">
					<rect x="-497.1" y="-49" class="st199" width="10" height="1"/>
				</g>
				<g transform="translate(105,0)">
					<rect x="-498.1" y="-48" class="st200" width="10" height="1"/>
				</g>
				<g transform="translate(106,0)">
					<rect x="-499.1" y="-47" class="st51" width="10" height="1"/>
				</g>
				<g transform="translate(107,0)">
					<rect x="-500.1" y="-46" class="st201" width="10" height="1"/>
				</g>
				<g transform="translate(108,0)">
					<rect x="-501.1" y="-45" class="st202" width="10" height="1"/>
				</g>
				<g transform="translate(109,0)">
					<rect x="-502.1" y="-44" class="st203" width="10" height="1"/>
				</g>
				<g transform="translate(110,0)">
					<rect x="-503.1" y="-43" class="st204" width="10" height="1"/>
				</g>
				<g transform="translate(111,0)">
					<rect x="-504.1" y="-42" class="st205" width="10" height="1"/>
				</g>
				<g transform="translate(112,0)">
					<rect x="-505.1" y="-41" class="st30" width="10" height="1"/>
				</g>
				<g transform="translate(113,0)">
					<rect x="-506.1" y="-40" class="st206" width="10" height="1"/>
				</g>
				<g transform="translate(114,0)">
					<rect x="-507.1" y="-39" class="st207" width="10" height="1"/>
				</g>
				<g transform="translate(115,0)">
					<rect x="-508.1" y="-38" class="st208" width="10" height="1"/>
				</g>
				<g transform="translate(116,0)">
					<rect x="-509.1" y="-37" class="st209" width="10" height="1"/>
				</g>
				<g transform="translate(117,0)">
					<rect x="-510.1" y="-36" class="st77" width="10" height="1"/>
				</g>
				<g transform="translate(118,0)">
					<rect x="-511.1" y="-35" class="st11" width="10" height="1"/>
				</g>
				<g transform="translate(119,0)">
					<rect x="-512.1" y="-34" class="st90" width="10" height="1"/>
				</g>
				<g transform="translate(120,0)">
					<rect x="-513.1" y="-33" class="st210" width="10" height="1"/>
				</g>
				<g transform="translate(121,0)">
					<rect x="-514.1" y="-32" class="st211" width="10" height="1"/>
				</g>
				<g transform="translate(122,0)">
					<rect x="-515.1" y="-31" class="st212" width="10" height="1"/>
				</g>
				<g transform="translate(123,0)">
					<rect x="-516.1" y="-30" class="st213" width="10" height="1"/>
				</g>
				<g transform="translate(124,0)">
					<rect x="-517.1" y="-29" class="st109" width="10" height="1"/>
				</g>
				<g transform="translate(125,0)">
					<rect x="-518.1" y="-28" class="st214" width="10" height="1"/>
				</g>
				<g transform="translate(126,0)">
					<rect x="-519.1" y="-27" class="st215" width="10" height="1"/>
				</g>
				<g transform="translate(127,0)">
					<rect x="-520.1" y="-26" class="st216" width="10" height="1"/>
				</g>
				<g transform="translate(128,0)">
					<rect x="-521.1" y="-25" class="st76" width="10" height="1"/>
				</g>
				<g transform="translate(129,0)">
					<rect x="-522.1" y="-24" class="st217" width="10" height="1"/>
				</g>
				<g transform="translate(130,0)">
					<rect x="-523.1" y="-23" class="st218" width="10" height="1"/>
				</g>
				<g transform="translate(131,0)">
					<rect x="-524.1" y="-22" class="st219" width="10" height="1"/>
				</g>
				<g transform="translate(132,0)">
					<rect x="-525.1" y="-21" class="st220" width="10" height="1"/>
				</g>
				<g transform="translate(133,0)">
					<rect x="-526.1" y="-20" class="st221" width="10" height="1"/>
				</g>
				<g transform="translate(134,0)">
					<rect x="-527.1" y="-19" class="st222" width="10" height="1"/>
				</g>
				<g transform="translate(135,0)">
					<rect x="-528.1" y="-18" class="st223" width="10" height="1"/>
				</g>
				<g transform="translate(136,0)">
					<rect x="-529.1" y="-17" class="st37" width="10" height="1"/>
				</g>
				<g transform="translate(137,0)">
					<rect x="-530.1" y="-16" class="st80" width="10" height="1"/>
				</g>
				<g transform="translate(138,0)">
					<rect x="-531.1" y="-15" class="st224" width="10" height="1"/>
				</g>
				<g transform="translate(139,0)">
					<rect x="-532.1" y="-14" class="st48" width="10" height="1"/>
				</g>
				<g transform="translate(140,0)">
					<rect x="-533.1" y="-13" class="st225" width="10" height="1"/>
				</g>
				<g transform="translate(141,0)">
					<rect x="-534.1" y="-12" class="st226" width="10" height="1"/>
				</g>
				<g transform="translate(142,0)">
					<rect x="-535.1" y="-11" class="st227" width="10" height="1"/>
				</g>
				<g transform="translate(143,0)">
					<rect x="-536.1" y="-10" class="st228" width="10" height="1"/>
				</g>
				<g transform="translate(144,0)">
					<rect x="-537.1" y="-9" class="st229" width="10" height="1"/>
				</g>
				<g transform="translate(145,0)">
					<rect x="-538.1" y="-8" class="st230" width="10" height="1"/>
				</g>
				<g transform="translate(146,0)">
					<rect x="-539.1" y="-7" class="st231" width="10" height="1"/>
				</g>
				<g transform="translate(147,0)">
					<rect x="-540.1" y="-6" class="st112" width="10" height="1"/>
				</g>
				<g transform="translate(148,0)">
					<rect x="-541.1" y="-5" class="st232" width="10" height="1"/>
				</g>
				<g transform="translate(149,0)">
					<rect x="-542.1" y="-4" class="st233" width="10" height="1"/>
				</g>
				<g transform="translate(150,0)">
					<rect x="-543.1" y="-3" class="st234" width="10" height="1"/>
				</g>
				<g transform="translate(151,0)">
					<rect x="-544.1" y="-2" class="st235" width="10" height="1"/>
				</g>
				<g transform="translate(152,0)">
					<rect x="-545.1" y="-1" class="st236" width="10" height="1"/>
				</g>
				<g transform="translate(153,0)">
					<rect x="-546.1" y="0" class="st237" width="10" height="1"/>
				</g>
				<g transform="translate(154,0)">
					<rect x="-547.1" y="1" class="st238" width="10" height="1"/>
				</g>
				<g transform="translate(155,0)">
					<rect x="-548.1" y="2" class="st68" width="10" height="1"/>
				</g>
				<g transform="translate(156,0)">
					<rect x="-549.1" y="3" class="st239" width="10" height="1"/>
				</g>
				<g transform="translate(157,0)">
					<rect x="-550.1" y="4" class="st240" width="10" height="1"/>
				</g>
				<g transform="translate(158,0)">
					<rect x="-551.1" y="5" class="st241" width="10" height="1"/>
				</g>
				<g transform="translate(159,0)">
					<rect x="-552.1" y="6" class="st242" width="10" height="1"/>
				</g>
				<g transform="translate(160,0)">
					<rect x="-553.1" y="7" class="st243" width="10" height="1"/>
				</g>
				<g transform="translate(161,0)">
					<rect x="-554.1" y="8" class="st244" width="10" height="1"/>
				</g>
				<g transform="translate(162,0)">
					<rect x="-555.1" y="9" class="st245" width="10" height="1"/>
				</g>
				<g transform="translate(163,0)">
					<rect x="-556.1" y="10" class="st70" width="10" height="1"/>
				</g>
				<g transform="translate(164,0)">
					<rect x="-557.1" y="11" class="st246" width="10" height="1"/>
				</g>
				<g transform="translate(165,0)">
					<rect x="-558.1" y="12" class="st247" width="10" height="1"/>
				</g>
				<g transform="translate(166,0)">
					<rect x="-559.1" y="13" class="st248" width="10" height="1"/>
				</g>
				<g transform="translate(167,0)">
					<rect x="-560.1" y="14" class="st249" width="10" height="1"/>
				</g>
				<g transform="translate(168,0)">
					<rect x="-561.1" y="15" class="st250" width="10" height="1"/>
				</g>
				<g transform="translate(169,0)">
					<rect x="-562.1" y="16" class="st251" width="10" height="1"/>
				</g>
				<g transform="translate(170,0)">
					<rect x="-563.1" y="17" class="st114" width="10" height="1"/>
				</g>
				<g transform="translate(171,0)">
					<rect x="-564.1" y="18" class="st252" width="10" height="1"/>
				</g>
				<g transform="translate(172,0)">
					<rect x="-565.1" y="19" class="st253" width="10" height="1"/>
				</g>
				<g transform="translate(173,0)">
					<rect x="-566.1" y="20" class="st254" width="10" height="1"/>
				</g>
				<g transform="translate(174,0)">
					<rect x="-567.1" y="21" class="st255" width="10" height="1"/>
				</g>
				<g transform="translate(175,0)">
					<rect x="-568.1" y="22" class="st256" width="10" height="1"/>
				</g>
				<g transform="translate(176,0)">
					<rect x="-569.1" y="23" class="st257" width="10" height="1"/>
				</g>
				<g transform="translate(177,0)">
					<rect x="-570.1" y="24" class="st258" width="10" height="1"/>
				</g>
				<g transform="translate(178,0)">
					<rect x="-571.1" y="25" class="st259" width="10" height="1"/>
				</g>
				<g transform="translate(179,0)">
					<rect x="-572.1" y="26" class="st260" width="10" height="1"/>
				</g>
				<g transform="translate(180,0)">
					<rect x="-573.1" y="27" class="st261" width="10" height="1"/>
				</g>
				<g transform="translate(181,0)">
					<rect x="-574.1" y="28" class="st262" width="10" height="1"/>
				</g>
				<g transform="translate(182,0)">
					<rect x="-575.1" y="29" class="st263" width="10" height="1"/>
				</g>
				<g transform="translate(183,0)">
					<rect x="-576.1" y="30" class="st264" width="10" height="1"/>
				</g>
				<g transform="translate(184,0)">
					<rect x="-577.1" y="31" class="st265" width="10" height="1"/>
				</g>
				<g transform="translate(185,0)">
					<rect x="-578.1" y="32" class="st266" width="10" height="1"/>
				</g>
				<g transform="translate(186,0)">
					<rect x="-579.1" y="33" class="st267" width="10" height="1"/>
				</g>
				<g transform="translate(187,0)">
					<rect x="-580.1" y="34" class="st268" width="10" height="1"/>
				</g>
				<g transform="translate(188,0)">
					<rect x="-581.1" y="35" class="st52" width="10" height="1"/>
				</g>
				<g transform="translate(189,0)">
					<rect x="-582.1" y="36" class="st102" width="10" height="1"/>
					<text transform="matrix(6.123234e-17 1 -1 6.123234e-17 -595.0625 10.977)" class="st118 st119">829.0</text>
				</g>
			</g>
			<text transform="matrix(6.123234e-17 1 -1 6.123234e-17 -367.5625 -137.4986)" class="st120 st121">annual</text>
		</g>
	</g>
</g>
</svg>
